<svg xmlns="http://www.w3.org/2000/svg" width="16" height="16" viewBox="0 0 16 16">
    <path fill="#008DE9" fill-rule="evenodd" d="M8 0c1.104 0 2.143.208 3.117.625a8.028 8.028 0 0 1 2.547 1.71 8.028 8.028 0 0 1 1.711 2.548C15.792 5.857 16 6.896 16 8a7.841 7.841 0 0 1-.625 3.117 8.028 8.028 0 0 1-1.71 2.547 8.028 8.028 0 0 1-2.548 1.711A7.841 7.841 0 0 1 8 16a7.841 7.841 0 0 1-3.117-.625 8.028 8.028 0 0 1-2.547-1.71 8.028 8.028 0 0 1-1.711-2.548A7.841 7.841 0 0 1 0 8c0-1.104.208-2.143.625-3.117a8.028 8.028 0 0 1 1.71-2.547A8.028 8.028 0 0 1 4.884.625 7.841 7.841 0 0 1 8 0zm0 15.016c.969 0 1.878-.185 2.727-.555a7.064 7.064 0 0 0 2.218-1.508 7.228 7.228 0 0 0 1.5-2.226C14.815 9.877 15 8.969 15 8c0-.969-.185-1.878-.555-2.727a7.131 7.131 0 0 0-1.5-2.218 7.131 7.131 0 0 0-2.218-1.5A6.753 6.753 0 0 0 8 1c-.969 0-1.878.185-2.727.555-.849.37-1.588.87-2.218 1.5-.63.63-1.13 1.37-1.5 2.218A6.753 6.753 0 0 0 1 8c0 .969.185 1.878.555 2.727.37.849.87 1.59 1.5 2.226a7.064 7.064 0 0 0 2.218 1.508c.85.37 1.758.555 2.727.555zm.313-10.032a.494.494 0 0 1 .718 0l2.953 3.032-2.953 3.03a.712.712 0 0 1-.172.102.484.484 0 0 1-.375 0 .712.712 0 0 1-.171-.101.521.521 0 0 1-.141-.36c0-.135.047-.255.14-.359L10.156 8.5H4.5A.494.494 0 0 1 4 8c0-.146.047-.266.14-.36a.487.487 0 0 1 .36-.14h5.625L8.312 5.687a.477.477 0 0 1-.14-.351c0-.14.047-.258.14-.352z"/>
</svg>
