<svg xmlns="http://www.w3.org/2000/svg" width="305" height="220" viewBox="0 0 305 220">
    <g fill="none" fill-rule="nonzero">
        <path fill="#E3F9FF" d="M236.235 58.574h68.668v63.585h-68.668zM0 25.66h115.513v129.424H0z"/>
        <path fill="#DFE2E6" d="M187.027 103.121l10.557-.129 28.127-14.584h-12.673zM273.415 0h-8.15c5.1 0 9.235 4.132 9.235 9.23v69.949c0 5.097-4.135 9.229-9.236 9.229h8.14c5.101 0 9.236-4.132 9.236-9.23V9.23c0-5.093-4.128-9.223-9.225-9.229z"/>
        <rect width="89.749" height="169.411" x="84.348" y="50.02" fill="#CAD2D2" rx="13.146"/>
        <path fill="#FFF" d="M89.127 64.959h80.202v133.288H89.127zM116.168 57.49h15.626M131.794 58.81h-15.636a1.32 1.32 0 1 1 0-2.64h15.636a1.32 1.32 0 1 1 0 2.64zM135.757 57.49h3.652M139.409 58.81h-3.652a1.32 1.32 0 1 1 0-2.64h3.652a1.32 1.32 0 1 1 0 2.64z"/>
        <ellipse cx="129.228" cy="208.367" fill="#FFF" rx="6.379" ry="6.375"/>
        <rect width="67.594" height="39.514" x="95.431" y="79.704" fill="#E4EAEA" rx="5.323"/>
        <path fill="#64BE21" d="M95.43 107.457l12.394-7.244 13.532-9.273 14.53 11.44 14.402-8.027 12.737 11.3v9.445s.14 4.947-6.508 4.12h-55.684s-5.37.966-5.37-5.365l-.032-6.396z"/>
        <rect width="10.16" height="31.562" x="109.016" y="140.467" fill="#3CAB21" rx="5.076"/>
        <rect width="10.16" height="40.416" x="124.266" y="131.614" fill="#64BE21" opacity=".7" rx="5.076"/>
        <rect width="10.16" height="35.436" x="139.28" y="136.593" fill="#3CAB21" rx="5.076"/>
        <rect width="49.863" height="3.327" x="103.464" y="176.805" fill="#DFE2E6" rx="1.663"/>
        <ellipse cx="107.824" cy="100.213" fill="#FFF" rx="2.169" ry="2.168"/>
        <ellipse cx="121.345" cy="90.94" fill="#FFF" rx="2.169" ry="2.168"/>
        <ellipse cx="135.886" cy="102.38" fill="#FFF" rx="2.169" ry="2.168"/>
        <ellipse cx="150.298" cy="94.353" fill="#FFF" rx="2.169" ry="2.168"/>
        <path fill="#64BE21" d="M266.177 0H163.443c-5.1 0-9.235 4.132-9.235 9.23v69.949c0 5.097 4.135 9.229 9.235 9.229h32.133l-8.592 13.951 26.913-13.951h52.226c5.101 0 9.236-4.132 9.236-9.23V9.23c0-5.076-4.102-9.2-9.182-9.229z"/>
        <path fill="#3CAB21" d="M161.446 79.179V9.229c0-5.097 4.135-9.229 9.236-9.229h-7.239c-5.1 0-9.235 4.132-9.235 9.23v69.949c0 5.097 4.135 9.229 9.235 9.229h7.239c-5.101 0-9.236-4.132-9.236-9.23z"/>
        <path fill="#FFF" d="M217.377 35.554h-7.722c0-5.334 4.328-9.658 9.666-9.658h7.721c0 5.334-4.327 9.658-9.665 9.658z"/>
        <path fill="#515151" d="M221.823 14.413a6.979 6.979 0 0 0 6.927 6.256h1.45v5.227h-3.06a6.981 6.981 0 0 1-6.357-4.02 6.972 6.972 0 0 1 .986-7.453l.054-.01z"/>
        <path fill="#FFF" d="M266.982 35.554h-7.721c-5.338 0-9.666-4.324-9.666-9.658h7.722c5.338 0 9.665 4.324 9.665 9.658z"/>
        <path fill="#515151" d="M210.31 35.554h8.334a8.398 8.398 0 0 0 7.743-5.14h-8.376a8.398 8.398 0 0 0-7.7 5.14zM250.229 30.414a8.398 8.398 0 0 0 7.743 5.14h8.366a8.398 8.398 0 0 0-7.743-5.14h-8.366zM255.599 14.413a6.979 6.979 0 0 1-6.949 6.246h-1.428v5.226h3.06a6.981 6.981 0 0 0 6.357-4.02 6.972 6.972 0 0 0-.987-7.452h-.053z"/>
        <path fill="#FFF" d="M250.229 25.96a8.247 8.247 0 0 0-8.055-6.439h-7.764a8.247 8.247 0 0 0-8.055 6.439 3.155 3.155 0 0 0-2.545 3.595l5.22 27.484c.58 3.627 2.91 6.289 6.583 6.289h4.65a7.516 7.516 0 0 0 7.356-6.128l5.08-27.58a3.155 3.155 0 0 0-2.47-3.66z"/>
        <path fill="#515151" d="M251.614 35.554h-.386a9.556 9.556 0 0 0-9.419 7.93l-1.976 11.452 7.818 2.264 3.963-21.646zM224.938 35.554h.386a9.556 9.556 0 0 1 9.419 7.93l1.976 11.452L228.9 57.2l-3.963-21.646z"/>
        <ellipse cx="238.104" cy="59.121" fill="#ECEFF4" rx="9.343" ry="9.337"/>
        <rect width="32.39" height="5.108" x="168.802" y="35.597" fill="#7ED320" opacity=".5" rx="2.554"/>
        <rect width="32.39" height="5.108" x="168.802" y="48.153" fill="#7ED320" opacity=".5" rx="2.554"/>
        <rect width="32.39" height="5.108" x="168.802" y="59.55" fill="#7ED320" opacity=".5" rx="2.554"/>
        <rect width="32.39" height="5.108" x="168.802" y="35.597" fill="#FFF" rx="2.168"/>
        <rect width="32.39" height="5.108" x="168.802" y="48.153" fill="#FFF" rx="2.554"/>
        <rect width="32.39" height="5.108" x="168.802" y="59.55" fill="#FFF" rx="2.168"/>
        <path fill="#7ED320" d="M168.802 16.173h16.195v11.472h-16.195z" opacity=".5"/>
        <path fill="#FFF" d="M168.802 16.173h16.195v11.472h-16.195z"/>
        <path fill="#64BE21" d="M24.636 70.078c0-13.353 10.833-24.178 24.196-24.178 13.363 0 24.196 10.825 24.196 24.178 0 13.353-10.833 24.179-24.196 24.179-13.355-.018-24.178-10.833-24.196-24.179zm6.916 0c0 9.542 7.742 17.278 17.291 17.278 9.55 0 17.29-7.736 17.29-17.278 0-9.542-7.74-17.278-17.29-17.278-9.551 0-17.295 7.734-17.301 17.278h.01z"/>
        <path fill="#FFF" d="M48.832 45.889V52.8c-9.547.006-17.284 7.738-17.29 17.278h-6.906c.012-13.35 10.836-24.171 24.196-24.19z"/>
        <rect width="49.863" height="3.327" x="23.895" y="110.708" fill="#FFF" rx="1.663"/>
        <rect width="49.863" height="3.327" x="23.895" y="120.474" fill="#FFF" rx="1.663"/>
        <rect width="49.863" height="3.327" x="23.895" y="129.639" fill="#FFF" rx="1.663"/>
    </g>
</svg>
