<svg xmlns="http://www.w3.org/2000/svg" width="476" height="200" viewBox="0 0 476 200">
    <g fill="none" fill-rule="evenodd">
        <path fill="#E3F9FF" fill-rule="nonzero" d="M331.39 120.202h78.235v61.202H331.39z"/>
        <g fill-rule="nonzero" transform="translate(153.449)">
            <path fill="#DFE5EA" d="M172.089 47.607h136.26v134.155h-136.26z"/>
            <path fill="#DFE2E6" d="M172.838 181.702H13.454l1.498-130 75.904-46.25 81.982 47.703z"/>
            <path fill="#E4EAEA" d="M.56 54.667L90.272 0l95.46 55.548v7.19L90.273 8.012.56 62.738z"/>
            <path fill="#DFE5EA" d="M90.273 0h128.16l103.976 55.155-136.676.393z"/>
            <path fill="#E4EAEA" d="M185.733 55.548H322.41v7.179H185.733z"/>
            <rect width="31.225" height="18.75" x="72.573" y="57.357" fill="#E4EAEA" rx="6.202"/>
            <rect width="20.579" height="18.75" x="83.231" y="57.357" fill="#CAD2D2" rx="6.202"/>
            <path fill="#CAD2D2" d="M55.73 89.714h70.788c7.542 0 13.656 6.12 13.656 13.667v78.321h-98.1v-78.31c0-7.547 6.113-13.666 13.655-13.666v-.012z"/>
            <rect width="41.146" height="21.321" x="194.19" y="91.929" fill="#E4EAEA" rx="7.06"/>
            <rect width="41.146" height="21.321" x="254.071" y="91.929" fill="#B9C1C7" rx="7.06"/>
            <rect width="29.833" height="21.321" x="205.229" y="91.929" fill="#CAD2D2" rx="7.06"/>
            <rect width="29.833" height="21.321" x="265.395" y="91.929" fill="#ADB2B6" rx="7.06"/>
        </g>
        <path fill="#E3F9FF" fill-rule="nonzero" d="M10.539 75.798h138.782v105.821H10.539z"/>
        <path fill="#515151" fill-rule="nonzero" d="M119.88 199.155h-10.99v-5.215h5.792a5.212 5.212 0 0 1 5.198 5.215z"/>
        <path fill="#B9D2DB" fill-rule="nonzero" d="M133.405 153.571v17.298a8.682 8.682 0 0 1-2.462 6.06 8.682 8.682 0 0 0-2.474 6.047v11.072h-4.342v-40.703l9.278.226z"/>
        <path fill="#515151" fill-rule="nonzero" d="M135.142 199.155h-10.991v-5.215h5.793a5.212 5.212 0 0 1 5.21 5.215h-.012z"/>
        <path fill="#B9D2DB" fill-rule="nonzero" d="M82.648 153.571v17.298a8.682 8.682 0 0 1-2.462 6.06 8.682 8.682 0 0 0-2.462 6.06v11.059h-4.342v-40.703l9.266.226z"/>
        <path fill="#515151" fill-rule="nonzero" d="M84.385 199.155H73.394v-5.215h5.78a5.212 5.212 0 0 1 5.211 5.215zM51.233 164.155a1.57 1.57 0 0 1-1.57-1.572v-38.845c.006-4.652 3.773-8.422 8.422-8.428a1.57 1.57 0 0 1 0 3.142 5.296 5.296 0 0 0-5.282 5.286v38.845a1.57 1.57 0 0 1-1.57 1.572z"/>
        <path fill="#ECEFF4" fill-rule="nonzero" d="M65.424 158.726c-.033-6.493 4.773-11.994 11.208-12.827 6.435-.834 12.482 3.26 14.102 9.549 1.62 6.287-1.694 12.798-7.729 15.183v3.179a1.19 1.19 0 0 1-2.26 0v-2.441c-.811.158-1.636.238-2.462.238v2.203a1.191 1.191 0 0 1-1.83 1.334 1.191 1.191 0 0 1-.43-1.334v-2.381a12.866 12.866 0 0 1-10.6-12.703z"/>
        <path fill="#FFF" fill-rule="nonzero" d="M64.33 114.738l72.56-.38.203 33.63V160.321h-.071c-.368 7.334-6.415 13.092-13.751 13.096a13.718 13.718 0 0 1-5.365-1.084 8.681 8.681 0 0 1-2.38 4.643 8.682 8.682 0 0 0-2.462 6.06v11.012h-4.175v-33.56l-18.188 2.381a43.362 43.362 0 0 1-21.411-2.548l-1.487-.5-.226.155v10.893a8.527 8.527 0 0 1-2.38 5.952 8.682 8.682 0 0 0-2.509 6.108v11.119h-4.401l-.785-39.988a42.319 42.319 0 0 0-.524-5.762c-.071-.46-.138-.929-.202-1.405l-2.653-20.453a10.363 10.363 0 0 1 2.465-8.156 10.345 10.345 0 0 1 7.742-3.546z"/>
        <path fill="#515151" fill-rule="nonzero" d="M69.385 199.155H58.394v-5.215h5.733a5.208 5.208 0 0 1 5.258 5.215z"/>
        <path fill="#FFF" fill-rule="nonzero" d="M145.86 116.881h5.555c1.845 0 3.615.734 4.92 2.04a6.967 6.967 0 0 1 2.039 4.924h-5.556a6.962 6.962 0 0 1-6.958-6.964z"/>
        <path fill="#515151" fill-rule="nonzero" d="M149.619 108.607a5.021 5.021 0 0 1-4.996 4.5h-1.047v3.762h2.2a5.02 5.02 0 0 0 4.567-2.906 5.027 5.027 0 0 0-.724-5.368v.012z"/>
        <path fill="#FFF" fill-rule="nonzero" d="M124.08 116.881h5.578a6.962 6.962 0 0 1-6.958 6.964h-5.58a6.962 6.962 0 0 1 6.96-6.964z"/>
        <path fill="#B9D2DB" fill-rule="nonzero" d="M146.169 120.238a5.413 5.413 0 0 0 5.115 3.643h6.792a5.413 5.413 0 0 0-5.115-3.643h-6.792zM117.43 123.81h6.792a5.413 5.413 0 0 0 5.115-3.643h-6.816a5.413 5.413 0 0 0-5.091 3.643z"/>
        <path fill="#515151" fill-rule="nonzero" d="M125.293 108.607a5.021 5.021 0 0 0 4.996 4.5h1.047v3.762h-2.201a5.02 5.02 0 0 1-4.567-2.906 5.027 5.027 0 0 1 .725-5.368v.012z"/>
        <path fill="#FFF" fill-rule="nonzero" d="M129.016 116.976v-.119a4.593 4.593 0 0 1 4.592-4.595h8.267a4.593 4.593 0 0 1 4.591 4.595v.095a2.274 2.274 0 0 1 1.69 2.56l-3.748 19.774c-.416 2.607-2.093 4.535-4.758 4.535h-3.342a5.378 5.378 0 0 1-5.294-4.416l-3.64-19.87a2.274 2.274 0 0 1 1.642-2.559z"/>
        <path fill="#515151" fill-rule="nonzero" d="M128.183 123.81h.286a6.877 6.877 0 0 1 6.78 5.714l1.428 8.25-5.627 1.63-2.867-15.594zM147.37 123.81h-.273a6.877 6.877 0 0 0-6.78 5.714l-1.428 8.25 5.627 1.63 2.854-15.594z"/>
        <ellipse cx="137.902" cy="140.821" fill="#ECEFF4" fill-rule="nonzero" rx="6.721" ry="6.726"/>
        <path fill="#515151" fill-rule="nonzero" d="M89.536 114.345h22.672v21.857c0 6.266-5.075 11.346-11.336 11.346-3.007 0-5.89-1.196-8.016-3.323a11.35 11.35 0 0 1-3.32-8.023v-21.857zM78.01 137.964a6.326 6.326 0 0 1-4.476-1.855 6.336 6.336 0 0 1 4.475-10.811h6.328v6.333a6.33 6.33 0 0 1-6.328 6.333z"/>
        <path fill="#64BE21" fill-rule="nonzero" d="M0 181.619c.13-.155.274-.298.416-.429a6.44 6.44 0 0 0 2.118-2.535c.583-1.917-1.19-4.203-.084-5.881 1.107-1.679 3.652-1.19 4.687-2.738.264-.434.423-.923.464-1.429.333-2.607-.535-5.69 1.309-7.571 1.843-1.881 5.186-.988 7.137.774 1.95 1.761 3.378 4.202 5.602 5.666.632.555 1.54.664 2.284.274.265-.257.475-.565.619-.905a6.233 6.233 0 0 1 4.758-3.155c5.032-.523 9.112 5.441 10.492 9.524.463 1.405 1.118 3.167 2.593 3.226.892 0 1.63-.619 2.462-.928a4.424 4.424 0 0 1 5.103 2.048 7.814 7.814 0 0 1 1.07 4.059H0zM321.35 127.869c2.38-5.702 6.852-10.202 10.135-15.417 4.39-6.964 6.53-15.071 8.66-23.023.654-2.465 1.392-5.048 3.2-6.846 1.808-1.797 5.055-2.38 6.852-.583 7.612 7.75-.94 23.5-2.808 31.798-1.725 7.678-.785 15.404-2.14 23.083-5.378 30.571-33.117 13.345-23.899-9.012z"/>
        <path stroke="#FFF" stroke-width=".964" d="M336.386 119.476s-13.025 36.226-9.35 62.595"/>
        <path fill="#3CAB21" fill-rule="nonzero" d="M337.124 178.381a6.095 6.095 0 0 1-2.855-4.179c-.12-1.738 1.558-3.571 3.211-3.035a4.011 4.011 0 0 1 2.082 2.56c.892 2.237 1.987 4.952 1.927 7.356-1.415-.285-3.08-1.773-4.365-2.702z"/>
        <path fill="#64BE21" fill-rule="nonzero" d="M341.49 181.107s-1.75-12.988 8.028-14.726c9.778-1.738-8.029 14.726-8.029 14.726z"/>
        <path fill="#515151" fill-rule="nonzero" d="M199.448 177.298h4.758v4.321h-9.124a4.323 4.323 0 0 1 4.366-4.321z"/>
        <path fill="#B9D2DB" fill-rule="nonzero" d="M183.913 143.762v14.357a7.146 7.146 0 0 0 2.046 5.024 7.146 7.146 0 0 1 2.046 5.024v9.143h3.568v-33.727l-7.66.179z"/>
        <path fill="#515151" fill-rule="nonzero" d="M186.756 177.298h4.758v4.321h-9.04a4.32 4.32 0 0 1 4.282-4.321z"/>
        <path fill="#B9D2DB" fill-rule="nonzero" d="M226.01 143.762v14.357a7.146 7.146 0 0 0 2.046 5.024 7.146 7.146 0 0 1 2.046 5.024v9.143h3.569v-33.727l-7.661.179z"/>
        <path fill="#515151" fill-rule="nonzero" d="M228.9 177.298h4.759v4.321h-9.076a4.32 4.32 0 0 1 4.318-4.321zM252.084 152.107a.869.869 0 0 1-.868-.869v-32.19a4.82 4.82 0 0 0-4.758-4.762.868.868 0 0 1 0-1.738 6.569 6.569 0 0 1 6.554 6.56v32.082a.87.87 0 0 1-.928.917z"/>
        <path fill="#ECEFF4" fill-rule="nonzero" d="M240.284 148.036c.03-5.414-3.981-10-9.348-10.686a10.706 10.706 0 0 0-11.733 7.988 10.716 10.716 0 0 0 6.498 12.626v2.572a.94.94 0 1 0 1.88 0v-2.024c.673.133 1.358.2 2.045.202v1.834a.94.94 0 1 0 1.88 0v-2a10.712 10.712 0 0 0 8.778-10.512z"/>
        <path fill="#7ED320" fill-rule="nonzero" d="M225.832 160.536v-1.834h-.155v1.834c0 .52.42.94.94.94h.083a.94.94 0 0 1-.868-.94z" opacity=".5"/>
        <path fill="#ECEFF4" fill-rule="nonzero" d="M229.579 137.369c-.631.004-1.26.064-1.88.179a10.712 10.712 0 0 1 8.575 10.5c0 5.095-3.585 9.486-8.575 10.5.617.11 1.241.165 1.868.166v1.834a.94.94 0 1 0 1.88 0v-2a10.713 10.713 0 0 0 8.398-11.414 10.71 10.71 0 0 0-10.266-9.765z"/>
        <path fill="#FFF" fill-rule="nonzero" d="M241.212 111.536l-60.237-.322-.167 27.905v10.238c.322 6.071 5.333 10.83 11.408 10.833 1.528 0 3.041-.307 4.448-.904a7.145 7.145 0 0 0 1.987 3.81 7.146 7.146 0 0 1 2.046 5.023v9.143h3.568V149.5l15.096 2.024c6.002.804 12.11.08 17.76-2.107l1.189-.465.19.131v9.036a7.074 7.074 0 0 0 1.998 4.988 7.146 7.146 0 0 1 2.082 5.072v9.142h3.569l.654-33.178c.038-1.596.185-3.187.44-4.762.063-.381.119-.778.167-1.19l2.236-16.917a8.6 8.6 0 0 0-2.022-6.773 8.586 8.586 0 0 0-6.412-2.965z"/>
        <path fill="#FFF" fill-rule="nonzero" d="M185.162 149.357V139.12l.13-27.869h-4.353l-.131 27.869v10.238c.25 6.036 4.294 10.833 9.254 10.833a7.56 7.56 0 0 0 2.177-.333c-3.925-1.178-6.863-5.393-7.077-10.5z"/>
        <path fill="#515151" fill-rule="nonzero" d="M241.379 177.298h4.758v4.321h-9.124a4.323 4.323 0 0 1 4.366-4.321z"/>
        <rect width="23.208" height="16.25" x="199.686" y="115.155" fill="#515151" fill-rule="nonzero" rx="8.119"/>
        <rect width="15.761" height="12.095" x="217.493" y="132.881" fill="#515151" fill-rule="nonzero" rx="6.048"/>
        <path fill="#515151" fill-rule="nonzero" d="M210.391 136.202h2.736v2.738a2.737 2.737 0 1 1-2.736-2.738z"/>
        <path fill="#FFF" fill-rule="nonzero" d="M167.854 119.095h-4.615a5.772 5.772 0 0 1 5.769-5.774h4.615a5.772 5.772 0 0 1-5.769 5.774z"/>
        <path fill="#515151" fill-rule="nonzero" d="M170.46 106.452a4.176 4.176 0 0 0 4.15 3.738h.869v3.12h-1.808a4.163 4.163 0 0 1-3.784-2.41 4.17 4.17 0 0 1 .596-4.448h-.024z"/>
        <path fill="#FFF" fill-rule="nonzero" d="M197.414 119.095h-4.616a5.767 5.767 0 0 1-4.093-1.657 5.776 5.776 0 0 1-1.723-4.069h4.615a5.772 5.772 0 0 1 5.77 5.774l.047-.048z"/>
        <path fill="#B9D2DB" fill-rule="nonzero" d="M163.477 119.048h5.436a4.675 4.675 0 0 0 4.39-3.084h-5.425a4.675 4.675 0 0 0-4.401 3.084zM187.315 116.012a4.675 4.675 0 0 0 4.389 3.083h5.424a4.675 4.675 0 0 0-4.425-3.083h-5.388z"/>
        <path fill="#515151" fill-rule="nonzero" d="M190.633 106.452a4.176 4.176 0 0 1-4.151 3.738h-.916v3.12h1.832a4.163 4.163 0 0 0 3.784-2.41 4.17 4.17 0 0 0-.596-4.448h.047z"/>
        <path fill="#FFF" fill-rule="nonzero" d="M187.54 113.393v-.095a3.82 3.82 0 0 0-3.806-3.774h-6.851a3.817 3.817 0 0 0-3.819 3.821v.084a1.893 1.893 0 0 0-1.403 2.047l3.116 16.429a3.998 3.998 0 0 0 3.926 3.762h2.783a4.462 4.462 0 0 0 4.39-3.667l3.02-16.488a1.881 1.881 0 0 0-1.355-2.12z"/>
        <path fill="#515151" fill-rule="nonzero" d="M188.243 119.048h-.226a5.711 5.711 0 0 0-5.627 4.762l-1.19 6.845 4.663 1.357 2.38-12.964zM172.315 119.048h.226a5.711 5.711 0 0 1 5.626 4.762l1.19 6.845-4.663 1.357-2.38-12.964z"/>
        <ellipse cx="180.178" cy="133.19" fill="#ECEFF4" fill-rule="nonzero" rx="5.579" ry="5.583"/>
    </g>
</svg>
