<svg xmlns="http://www.w3.org/2000/svg" width="341" height="249" viewBox="0 0 341 249">
    <defs>
        <linearGradient id="a" x1="100%" x2="0%" y1="50%" y2="50%">
            <stop offset="0%" stop-color="#FFF"/>
            <stop offset="100%" stop-color="#D7D6D7"/>
        </linearGradient>
        <linearGradient id="b" x1="17649%" x2="18495%" y1="11942%" y2="11942%">
            <stop offset="0%" stop-color="#FFF"/>
            <stop offset="100%" stop-color="#D7D6D7"/>
        </linearGradient>
        <linearGradient id="c" x1="16913%" x2="16913%" y1="8039%" y2="6529%">
            <stop offset="0%" stop-color="#FFF"/>
            <stop offset="100%" stop-color="#D7D6D7"/>
        </linearGradient>
        <linearGradient id="d" x1="7270%" x2="8036%" y1="7088%" y2="7088%">
            <stop offset="0%" stop-color="#FFF"/>
            <stop offset="100%" stop-color="#D7D6D7"/>
        </linearGradient>
        <linearGradient id="e" x1="0%" y1="50%" y2="50%">
            <stop offset="0%" stop-color="#64BB12"/>
            <stop offset="100%" stop-color="#7DD321"/>
        </linearGradient>
        <linearGradient id="f" x1="50.055%" x2="50.055%" y1="100%" y2="0%">
            <stop offset="9%" stop-color="#3CAB21"/>
            <stop offset="100%" stop-color="#2A9721"/>
        </linearGradient>
    </defs>
    <g fill="none" fill-rule="evenodd">
        <path fill="#E3F9FF" fill-rule="nonzero" d="M0 41.274h152.105v116.108H0zM192.329 57.783h147.869v165.684H192.329z"/>
        <path fill="#3CAB21" fill-rule="nonzero" d="M197.886 0h-91.692c-4.562 0-8.26 3.696-8.26 8.255v62.5c0 4.559 3.698 8.255 8.26 8.255h28.731l10.501 14.516h2.443a3.326 3.326 0 0 0 3.327-3.29l.118-11.226h46.62c4.561 0 8.259-3.696 8.259-8.255v-62.5a8.252 8.252 0 0 0-2.436-5.854 8.262 8.262 0 0 0-5.87-2.4z"/>
        <path fill="#E4EAEA" fill-rule="nonzero" d="M191.987 0h-91.693c-4.561 0-8.26 3.696-8.26 8.255v62.5c0 4.559 3.699 8.254 8.26 8.254h28.684l16.236 13.562.153-13.562h46.62c4.561 0 8.26-3.695 8.26-8.254v-62.5c0-4.56-3.699-8.255-8.26-8.255z"/>
        <path fill="#A8B6C2" fill-rule="nonzero" d="M98.737 70.684V8.254c0-4.558 3.698-8.254 8.26-8.254h-6.703c-4.561 0-8.26 3.696-8.26 8.255v62.5c0 4.559 3.699 8.254 8.26 8.254h6.69a8.262 8.262 0 0 1-5.858-2.446 8.252 8.252 0 0 1-2.39-5.879z" opacity=".5"/>
        <path fill="url(#a)" fill-rule="nonzero" d="M142.772 119.104h6.902a5.075 5.075 0 0 1 5.074 5.07v.33c0 2.801-2.272 5.071-5.074 5.071h-6.902v-10.471z" transform="rotate(180 148.76 124.34)"/>
        <path fill="#E4EAEA" fill-rule="nonzero" d="M188.848 90.802h-2.36c-4.96 0-8.98 4.018-8.98 8.974v18.75h-24.117v10.448h35.398l.059-38.172z"/>
        <path fill="#3CAB21" fill-rule="nonzero" d="M183.786 132.43l.106.011 1.664-41.64h32.4l1.77 44.376 9.24 102.63h-18.868l-9.793-79.364-5.71 79.364H178.17z"/>
        <path fill="#5EC421" fill-rule="nonzero" d="M200.364 133.255h-.39a6.464 6.464 0 0 1-6.465-6.463v-8.867h13.368v8.808a6.46 6.46 0 0 1-6.513 6.522z"/>
        <path fill="#FFF" fill-rule="nonzero" d="M234.825 140.833l-17.964 10.372-13.909-24.091 17.964-10.372z"/>
        <path fill="#E4EAEA" fill-rule="nonzero" d="M229.626 96.038l11.422 21.144a9.572 9.572 0 0 1-2.49 12.028l-18.289 14.493-7.315-7.984 15.94-14.469-16.506-30.448h8.471a9.96 9.96 0 0 1 8.767 5.236zM207.196 90.802v10.613a6.543 6.543 0 0 1-6.549 6.545h-.59a6.547 6.547 0 0 1-6.548-6.545V90.802"/>
        <path fill="#E4EAEA" fill-rule="nonzero" d="M217.815 111.816h-.189a6.417 6.417 0 0 1-6.418-6.415V90.8h6.607v21.015z"/>
        <path fill="url(#b)" fill-rule="nonzero" d="M211.986 135.613l-3.02 2.984a4.338 4.338 0 0 0-.272 5.896 4.343 4.343 0 0 0 6.608 0l2.36-2.712-5.676-6.168z"/>
        <path fill="#515151" fill-rule="nonzero" d="M191.456 238.208v10.613H171.09v-2.135a4.919 4.919 0 0 1 4.92-4.917h6.42v-3.538l9.026-.023zM224.482 238.208v10.613h-20.354v-2.135a4.919 4.919 0 0 1 4.92-4.917h6.42v-3.538l9.014-.023z"/>
        <path fill="#3CAB21" fill-rule="nonzero" d="M206.94 76.27c4.066-2.87 5.999-7.907 4.896-12.759-1.664-8.679-10.466-8.078-10.466-8.078s-3.858 20.048 5.57 20.838z"/>
        <path fill="url(#c)" fill-rule="nonzero" d="M199.054 76.652h.26a4.39 4.39 0 0 1 4.46 4.375v13.431h-9.085V81.027a4.388 4.388 0 0 1 4.365-4.375z" transform="rotate(-180 199.231 85.555)"/>
        <path fill="#FFF" fill-rule="nonzero" d="M198.724 86.71l-2.077.99a7.153 7.153 0 0 1-8.4-1.686 7.144 7.144 0 0 1-1.818-4.717v-14.08h18.124V77.63a10.106 10.106 0 0 1-5.83 9.08z"/>
        <path fill="#FFF" fill-rule="nonzero" d="M192.07 86.05a7.144 7.144 0 0 1-1.818-4.717V67.217h-3.823v14.068a7.145 7.145 0 0 0 2.841 5.705 7.154 7.154 0 0 0 6.268 1.17 7.08 7.08 0 0 1-3.469-2.11zM205.603 79.14h-1.475v-6.027h1.475a2.925 2.925 0 0 1 2.867 2.925v.177a2.925 2.925 0 0 1-2.926 2.924h.059z"/>
        <path fill="#3CAB21" fill-rule="nonzero" d="M201.234 55.118a130.54 130.54 0 0 1-13.322-.837c-10.466-.956-15.339 17.83.118 14.74 10.336-2.064 11.056-2.736 11.056-2.736s-.354 8.255 4.52 8.255c.058-.012 3.81-17.642-2.372-19.422z"/>
        <path fill="#9FE349" fill-rule="nonzero" d="M190.779 54.527l-2.856-.247c-10.442-.944-15.339 17.771 0 14.752-7.067-2.028-4.047-12.641 2.856-14.505z" opacity=".5"/>
        <path fill="#FFF" fill-rule="nonzero" d="M201.768 75.472h3.009v3.007h-3.009z"/>
        <path fill="#E4EAEA" fill-rule="nonzero" d="M188.07 108.8a4.09 4.09 0 0 1-4 4.186V92.798a1.957 1.957 0 0 1 2.064-1.993h1.936"/>
        <path fill="url(#d)" fill-rule="nonzero" d="M86.135 74.292h9.038v13.42a4.388 4.388 0 0 1-4.39 4.387h-.259a4.388 4.388 0 0 1-4.39-4.387v-13.42z"/>
        <path fill="#FFF" fill-rule="nonzero" d="M94.265 84.399l2.076.99a7.153 7.153 0 0 0 8.401-1.686 7.144 7.144 0 0 0 1.818-4.717V64.858H88.495v10.413c0 3.9 2.245 7.453 5.77 9.128zM81.864 88.443h15.551l1.64 4.8h-18.82z"/>
        <path fill="#3CAB21" fill-rule="nonzero" d="M83.881 172.052H53.097v-23.467h30.784z"/>
        <path fill="#64BE21" fill-rule="nonzero" d="M87.42 172.052H56.638v-23.467H87.42z"/>
        <path fill="#5EC421" fill-rule="nonzero" d="M56.637 148.585l15.386 11.722 15.398-11.722z"/>
        <path fill="#E4EAEA" fill-rule="nonzero" d="M62.094 96.038l-11.398 21.144a9.572 9.572 0 0 0 2.49 12.028l18.347 14.493 7.316-7.984-16-14.469 16.46-30.448h-8.472a9.96 9.96 0 0 0-8.743 5.236z"/>
        <path fill="#CAD2D2" fill-rule="nonzero" d="M72.873 132.43l.106.011 1.663-41.64h32.413l1.758 44.376 9.24 102.63H99.196l-8.98-73.42-6.536 73.42H67.256z"/>
        <path fill="#8EA0BB" fill-rule="nonzero" d="M84.754 161.557l-6.879 76.91h5.735l6.537-73.42zM108.967 135.177l-1.758-44.375h-5.735l1.758 44.375 9.239 102.63h5.734z" opacity=".5"/>
        <path fill="#FFF" fill-rule="nonzero" d="M73.156 91.981h6.608v11.521h-6.608z"/>
        <path fill="#515151" fill-rule="nonzero" d="M101.474 238.208v10.613h20.366v-2.135a4.919 4.919 0 0 0-4.92-4.917h-6.372v-3.538l-9.074-.023zM68.436 238.243v10.613h20.366v-2.134a4.916 4.916 0 0 0-4.968-4.977h-6.383v-3.537l-9.015.035z"/>
        <path fill="#E4EAEA" fill-rule="nonzero" d="M70.796 148.892h40.85l-4.91-58.09h-35.94z"/>
        <path fill="#A8B6C2" fill-rule="nonzero" d="M106.701 90.802h-2.867l2.041 58.09h5.735z" opacity=".5"/>
        <path fill="#FFF" fill-rule="nonzero" d="M136.872 119.104h6.903a5.072 5.072 0 0 1 5.073 5.07v.33c0 2.801-2.271 5.071-5.073 5.071h-6.903v-10.471z"/>
        <path fill="#E4EAEA" fill-rule="nonzero" d="M103.893 90.802h2.36c4.959 0 8.979 4.018 8.979 8.974v18.75h24.106v10.448h-26.843c-2.297 0-4.5-.912-6.124-2.535a8.653 8.653 0 0 1-2.537-6.12l.059-29.517z"/>
        <path fill="#515151" fill-rule="nonzero" d="M111.31 65.479a4.812 4.812 0 0 1-3.646 4.717l-8.366 2.087v2.524l-1.628-.413a1.322 1.322 0 0 0-1.64 1.285v1.18c0 1.204.977 2.181 2.183 2.181l-3.752 5.896h-9.039L80.254 73.31a13.944 13.944 0 0 1 1.357-13.703 9.89 9.89 0 0 1 10.254-3.939l14.065 3.184a6.911 6.911 0 0 1 5.38 6.628z"/>
        <path fill="#64BE21" fill-rule="nonzero" d="M135.692 27.123v31.674c0 2.771 6.277 5.024 14.03 5.024 7.752 0 14.029-2.253 14.029-5.024V27.123h-28.059z"/>
        <ellipse cx="149.721" cy="27.429" fill="#5EC421" fill-rule="nonzero" rx="14.029" ry="5.024"/>
        <path fill="#3CAB21" fill-rule="nonzero" d="M164.2 51.887a.436.436 0 0 0-.437.424s-.295 4.6-13.605 4.6-13.593-4.529-13.605-4.6a.437.437 0 0 0-.861 0c0 .224.165 5.46 14.466 5.46 9.982 0 13.074-2.547 14.03-4.163l.011-1.721zM164.2 45.99a.436.436 0 0 0-.437.425s-.295 4.6-13.605 4.6-13.593-4.53-13.605-4.6a.437.437 0 0 0-.861 0c0 .224.165 5.46 14.466 5.46 9.982 0 13.074-2.547 14.03-4.163l.011-1.721z"/>
        <path fill="#3CAB21" fill-rule="nonzero" d="M164.2 41.274a.436.436 0 0 0-.437.424s-.295 4.6-13.605 4.6-13.593-4.53-13.605-4.6a.437.437 0 0 0-.861 0c0 .224.165 5.46 14.466 5.46 9.982 0 13.074-2.547 14.03-4.163l.011-1.721z"/>
        <ellipse cx="126.453" cy="49.729" fill="url(#e)" fill-rule="nonzero" rx="14.36" ry="14.351"/>
        <ellipse cx="125.946" cy="49.222" fill="#64BE21" fill-rule="nonzero" rx="9.133" ry="9.127"/>
        <path fill="#3CAB21" fill-rule="nonzero" d="M128.078 57.386a7.429 7.429 0 1 1-2.318-14.491 7.435 7.435 0 0 1 8.926 3.677 9.132 9.132 0 0 0-8.554-6.476 9.132 9.132 0 0 0-8.81 6.123 9.124 9.124 0 0 0 3.096 10.268 9.137 9.137 0 0 0 10.728.238 7.402 7.402 0 0 1-3.068.66z"/>
        <path fill="#FFF" fill-rule="nonzero" d="M129.639 25.649l.885.094-.885.094a6.676 6.676 0 0 0-5.9 5.896l-.094.885-.094-.885a6.676 6.676 0 0 0-5.9-5.896l-.838-.094.885-.094a6.676 6.676 0 0 0 5.9-5.897l.094-.884.095.884a6.676 6.676 0 0 0 5.852 5.897zM179.243 48.054l.885.095-.885.094a6.676 6.676 0 0 0-5.9 5.896l-.094.885-.094-.885a6.676 6.676 0 0 0-5.9-5.896l-.885-.094.885-.095a6.676 6.676 0 0 0 5.9-5.896l.094-.884.095.884a6.676 6.676 0 0 0 5.9 5.896zM157.71 13.573l.542.06-.542.058a4.081 4.081 0 0 0-3.6 3.597l-.058.542-.06-.542a4.081 4.081 0 0 0-3.598-3.597l-.543-.059.543-.059a4.081 4.081 0 0 0 3.599-3.597l.059-.542.059.542a4.081 4.081 0 0 0 3.599 3.597z"/>
        <path fill="#3CAB21" fill-rule="nonzero" d="M163.302 36.946s-.295 4.599-13.604 4.599c-13.31 0-13.593-4.528-13.605-4.6a.436.436 0 0 0-.401-.388v1.721c.956 1.616 4.047 4.163 14.03 4.163 9.982 0 13.108-2.582 14.017-4.198v-1.686a.436.436 0 0 0-.437.389z"/>
        <path fill="#3CAB21" fill-rule="nonzero" d="M163.302 32.3s-.295 4.599-13.604 4.599c-13.31 0-13.593-4.529-13.605-4.6a.436.436 0 0 0-.401-.46v1.722c.956 1.616 4.047 4.163 14.03 4.163 9.982 0 13.073-2.547 14.029-4.163V31.84a.437.437 0 0 0-.449.46z"/>
        <path fill="#A8B6C2" fill-rule="nonzero" d="M70.82 128.125l-4.744-4.304v15.295l4.743 3.761z" opacity=".5"/>
        <path fill="url(#f)" fill-rule="nonzero" d="M200.789 158.302l-2.348-9.552 1.156-6.061-9.628 36.014 9.487-1.852z"/>
        <path fill="#64BE21" fill-rule="nonzero" d="M265.466 156.778c2.95-7.146 8.601-12.783 12.731-19.327 5.51-8.739 8.26-18.868 10.867-28.88.826-3.09 1.746-6.333 4.012-8.585 2.265-2.252 6.36-3.007 8.602-.731 9.557 9.717-1.18 29.48-3.54 39.87-2.171 9.635-.991 19.316-2.679 28.95-6.737 38.338-41.58 16.734-29.993-11.297z"/>
        <path stroke="#FFF" stroke-width=".884" d="M283.984 146.226s-16.353 45.425-11.799 78.491"/>
        <path fill="#64BE21" fill-rule="nonzero" d="M285.548 220.247c-1.77-1.285-3.422-3.054-3.54-5.235-.118-2.182 1.959-4.505 4.036-3.798a5.036 5.036 0 0 1 2.607 3.22c1.18 2.806 2.49 6.214 2.42 9.233-1.806-.389-3.906-2.252-5.523-3.42z"/>
        <path fill="#AEED65" fill-rule="nonzero" d="M290.415 222.64s-2.195-16.274 10.088-18.468c12.284-2.193-10.088 18.467-10.088 18.467z"/>
    </g>
</svg>
