<svg xmlns="http://www.w3.org/2000/svg" width="506" height="201" viewBox="0 0 506 201">
    <defs>
        <linearGradient id="a" x1="8.377%" x2="83.579%" y1="79.897%" y2="-7.816%">
            <stop offset="0%" stop-color="#FFF"/>
            <stop offset="100%" stop-color="#D7D6D7"/>
        </linearGradient>
        <linearGradient id="b" x1="18087%" x2="18087%" y1="9196%" y2="7936%">
            <stop offset="0%" stop-color="#FFF"/>
            <stop offset="100%" stop-color="#D7D6D7"/>
        </linearGradient>
    </defs>
    <g fill="none" fill-rule="evenodd" transform="translate(-1)">
        <path fill="#E3F9FF" fill-rule="nonzero" d="M220.88 21.18h208.51v126.43H220.88z"/>
        <path fill="#3CAB21" fill-rule="nonzero" d="M234.73 112.69c1.41-3.42 4.11-6.11 6.08-9.24 2.63-4.18 3.92-9 5.19-13.81a8.76 8.76 0 0 1 1.92-4.11c1.08-1.08 3-1.44 4.11-.35 4.56 4.65-.56 14.09-1.68 19.06-1 4.61-.47 9.24-1.28 13.84-3.23 18.34-19.88 8.01-14.34-5.39z"/>
        <path stroke="#DFE5EA" d="M243.75 107.66s-7.81 21.72-5.61 37.53"/>
        <path fill="#E3F9FF" fill-rule="nonzero" d="M1 58.86h133.89v119.69H1z"/>
        <path fill="#A8B6C2" fill-rule="nonzero" d="M429.4 21.18h35.35v125.71H429.4z" opacity=".5"/>
        <path fill="#DFE5EA" fill-rule="nonzero" d="M359.46 68.34h79.62v78.33h-79.62z"/>
        <path fill="#DFE2E6" fill-rule="nonzero" d="M359.9 146.64h-93.13l.87-75.9L312 43.73l47.9 27.86z"/>
        <path fill="#E4EAEA" fill-rule="nonzero" d="M259.24 72.47l52.42-31.92 55.78 32.43v4.2l-55.78-31.95-52.42 31.95z"/>
        <path fill="#DFE5EA" fill-rule="nonzero" d="M311.66 40.55h74.89l60.76 32.2-79.87.23z"/>
        <path fill="#E4EAEA" fill-rule="nonzero" d="M367.44 72.98h79.87v4.19h-79.87z"/>
        <rect width="18.25" height="10.95" x="301.31" y="74.04" fill="#E4EAEA" fill-rule="nonzero" rx="4.84"/>
        <rect width="12.02" height="10.95" x="307.54" y="74.04" fill="#CAD2D2" fill-rule="nonzero" rx="4.84"/>
        <path fill="#CAD2D2" fill-rule="nonzero" d="M294.16 92.93h36c5.893 0 10.67 4.777 10.67 10.67v43H283.5v-43c0-5.889 4.771-10.664 10.66-10.67z"/>
        <rect width="24.05" height="12.45" x="372.38" y="94.22" fill="#E4EAEA" fill-rule="nonzero" rx="5.51"/>
        <rect width="24.05" height="12.45" x="407.37" y="94.22" fill="#B9C1C7" fill-rule="nonzero" rx="5.51"/>
        <rect width="17.43" height="12.45" x="378.83" y="94.22" fill="#CAD2D2" fill-rule="nonzero" rx="5.51"/>
        <rect width="17.43" height="12.45" x="413.99" y="94.22" fill="#ADB2B6" fill-rule="nonzero" rx="5.51"/>
        <path fill="#E4EAEA" fill-rule="nonzero" d="M445.34 0h3.46c8.803 0 15.94 7.137 15.94 15.94v5.23H429.4v-5.23C429.4 7.137 436.537 0 445.34 0z"/>
        <path fill="#A8B6C2" fill-rule="nonzero" d="M471.36 21.18h35.35v125.71h-35.35z" opacity=".5"/>
        <path fill="#FFF" fill-rule="nonzero" d="M453.17 21.18h11.57v125.71h-11.57zM495.14 21.18h11.57v125.71h-11.57z" opacity=".29"/>
        <path fill="#E4EAEA" fill-rule="nonzero" d="M487.31 0h3.46c8.803 0 15.94 7.137 15.94 15.94v5.23h-35.35v-5.23A15.94 15.94 0 0 1 487.31 0z"/>
        <path fill="#FFF" fill-rule="nonzero" d="M447.63 0h-1.12a17.08 17.08 0 0 0-5.22.82 17.11 17.11 0 0 1 11.89 16.29v4.06h11.57v-4.06A17.11 17.11 0 0 0 447.63 0zM489.6 0h-1.12a17.08 17.08 0 0 0-5.22.82 17.11 17.11 0 0 1 11.89 16.29v4.06h11.57v-4.06A17.11 17.11 0 0 0 489.6 0z" opacity=".29"/>
        <path fill="#64BE21" fill-rule="nonzero" d="M50 178.84c-.13-.14-.26-.28-.4-.41a6.18 6.18 0 0 1-2-2.44c-.56-1.84 1.13-4 .08-5.64-1.05-1.64-3.51-1.16-4.51-2.63a3.12 3.12 0 0 1-.45-1.37c-.32-2.5.51-5.47-1.25-7.27-1.76-1.8-5-1-6.9.74-1.9 1.74-3.25 4-5.39 5.43a2 2 0 0 1-2.19.26 2.65 2.65 0 0 1-.6-.86 6 6 0 0 0-4.55-3c-4.83-.5-8.76 5.22-10.08 9.17-.45 1.35-1.08 3-2.5 3.1-.85 0-1.57-.59-2.37-.9A4.25 4.25 0 0 0 2 174.94a7.5 7.5 0 0 0-1 3.9h49zM274.86 147.19c-.12-.14-.25-.27-.38-.39a5.89 5.89 0 0 1-1.94-2.33c-.53-1.76 1.08-3.84.08-5.38s-3.35-1.11-4.3-2.51a3 3 0 0 1-.43-1.3c-.3-2.39.49-5.21-1.19-6.93-1.68-1.72-4.75-.91-6.58.71s-3.1 3.84-5.14 5.18a1.86 1.86 0 0 1-2.09.25 2.53 2.53 0 0 1-.57-.82 5.72 5.72 0 0 0-4.34-2.89c-4.61-.48-8.35 5-9.61 8.75-.43 1.28-1 2.9-2.38 3-.81 0-1.5-.56-2.26-.86a4.05 4.05 0 0 0-4.62 1.85 7.154 7.154 0 0 0-1 3.72l46.75-.05z"/>
        <path fill="#515151" fill-rule="nonzero" d="M308.74 182.37h-8v-3.79h4.59a3.42 3.42 0 0 1 3.42 3.42v.37h-.01z"/>
        <path fill="#B9D2DB" fill-rule="nonzero" d="M318.59 149.15v12.59a6.32 6.32 0 0 1-1.79 4.41 6.32 6.32 0 0 0-1.79 4.41v8h-3.16V149l6.74.15z"/>
        <path fill="#515151" fill-rule="nonzero" d="M319.85 182.37h-8v-3.79h4.59a3.42 3.42 0 0 1 3.42 3.42v.37h-.01z"/>
        <path fill="#B9D2DB" fill-rule="nonzero" d="M281.61 149.15v12.59a6.32 6.32 0 0 1-1.79 4.41 6.32 6.32 0 0 0-1.79 4.41v8h-3.16V149l6.74.15z"/>
        <path fill="#515151" fill-rule="nonzero" d="M282.88 182.37h-8v-3.79h4.59a3.42 3.42 0 0 1 3.42 3.42v.37h-.01zM258.72 156.86a1.15 1.15 0 0 1-1.15-1.15v-28.27a6.15 6.15 0 0 1 6.14-6.14 1.15 1.15 0 1 1 0 2.29 3.85 3.85 0 0 0-3.85 3.85v28.27a1.15 1.15 0 0 1-1.14 1.15z"/>
        <path fill="#ECEFF4" fill-rule="nonzero" d="M269.1 152.91a9.36 9.36 0 1 1 12.81 8.71v2.26a.825.825 0 1 1-1.65 0v-1.78a9.41 9.41 0 0 1-1.8.17v1.6a.825.825 0 1 1-1.65 0v-1.75a9.36 9.36 0 0 1-7.71-9.21z"/>
        <path fill="#FFF" fill-rule="nonzero" d="M268.27 120.88l52.89-.28.14 24.48v9a10 10 0 0 1-10 9.5 10 10 0 0 1-3.91-.79 6.31 6.31 0 0 1-1.7 3.38 6.32 6.32 0 0 0-1.79 4.41v8h-3.16v-24.39L287.47 156a31.61 31.61 0 0 1-15.6-1.85l-1.06-.41-.16.11v7.93a6.2 6.2 0 0 1-1.76 4.37 6.32 6.32 0 0 0-1.83 4.44v8h-3.16l-.57-29.11a30.78 30.78 0 0 0-.38-4.19 51.703 51.703 0 0 1-.15-1l-2-14.84a7.54 7.54 0 0 1 7.47-8.57z"/>
        <path fill="#515151" fill-rule="nonzero" d="M271.92 182.37h-8v-3.79h4.59a3.42 3.42 0 0 1 3.42 3.42v.37h-.01z"/>
        <path fill="#FFF" fill-rule="nonzero" d="M327.66 122.44h4.55a4.57 4.57 0 0 1 4.57 4.57v.5h-4.55a4.57 4.57 0 0 1-4.57-4.57v-.5z"/>
        <path fill="#515151" fill-rule="nonzero" d="M330.4 116.42a3.66 3.66 0 0 1-3.64 3.28H326v2.74h1.61a3.66 3.66 0 0 0 2.8-6l-.01-.02z"/>
        <path fill="#FFF" fill-rule="nonzero" d="M311.3 122.44h4.55v.5a4.57 4.57 0 0 1-4.57 4.57h-4.55V127a4.57 4.57 0 0 1 4.57-4.56z"/>
        <path fill="#B9D2DB" fill-rule="nonzero" d="M327.88 124.86a4 4 0 0 0 3.72 2.65h4.95a4 4 0 0 0-3.72-2.65h-4.95zM306.95 127.51h4.95a4 4 0 0 0 3.72-2.65h-4.95a4 4 0 0 0-3.72 2.65z"/>
        <path fill="#515151" fill-rule="nonzero" d="M312.68 116.42a3.66 3.66 0 0 0 3.64 3.28h.76v2.74h-1.61a3.66 3.66 0 0 1-2.8-6l.01-.02z"/>
        <path fill="#FFF" fill-rule="nonzero" d="M315.39 122.51v-.09c0-1.85 1.5-3.35 3.35-3.35h6c1.85 0 3.35 1.5 3.35 3.35v.07a1.66 1.66 0 0 1 1.23 1.87l-2.74 14.42c-.31 1.9-1.52 3.3-3.45 3.3h-2.44a3.92 3.92 0 0 1-3.86-3.21l-2.65-14.47a1.65 1.65 0 0 1 1.21-1.89z"/>
        <path fill="#515151" fill-rule="nonzero" d="M314.78 127.51h.2a5 5 0 0 1 4.94 4.16l1 6-4.1 1.19-2.04-11.35zM328.77 127.51h-.2a5 5 0 0 0-4.94 4.16l-1 6 4.1 1.19 2.04-11.35z"/>
        <circle cx="321.86" cy="139.87" r="4.9" fill="#ECEFF4" fill-rule="nonzero"/>
        <path fill="#515151" fill-rule="nonzero" d="M286.63 120.6h16.52v16.72a7.45 7.45 0 0 1-7.45 7.45h-1.62a7.45 7.45 0 0 1-7.45-7.45V120.6zM278.69 137.8h-.9a4.16 4.16 0 0 1-4.16-4.16v-.9a4.16 4.16 0 0 1 4.16-4.16h5.06v5.06a4.16 4.16 0 0 1-4.16 4.16zM366.39 166.42h3.81v3.15h-6.65v-.31a2.84 2.84 0 0 1 2.84-2.84z"/>
        <path fill="#B9D2DB" fill-rule="nonzero" d="M355.38 142v10.45a5.24 5.24 0 0 0 1.49 3.66 5.24 5.24 0 0 1 1.49 3.66v6.65H361v-24.54l-5.62.12z"/>
        <path fill="#515151" fill-rule="nonzero" d="M357.17 166.42H361v3.15h-6.65v-.31a2.84 2.84 0 0 1 2.82-2.84z"/>
        <path fill="#B9D2DB" fill-rule="nonzero" d="M386.06 142v10.45a5.24 5.24 0 0 0 1.49 3.66 5.24 5.24 0 0 1 1.49 3.66v6.65h2.62v-24.54l-5.6.12z"/>
        <path fill="#515151" fill-rule="nonzero" d="M387.85 166.42h3.81v3.15H385v-.31a2.84 2.84 0 0 1 2.85-2.84zM405 148.09a.63.63 0 0 1-.63-.63V124a3.51 3.51 0 0 0-3.51-3.51.635.635 0 1 1 0-1.27 4.78 4.78 0 0 1 4.78 4.78v23.46a.63.63 0 0 1-.64.63z"/>
        <path fill="#ECEFF4" fill-rule="nonzero" d="M396.43 145.13a7.77 7.77 0 1 0-10.63 7.22v1.88a.685.685 0 0 0 1.37 0v-1.47a7.8 7.8 0 0 0 1.49.14v1.33a.685.685 0 0 0 1.37 0v-1.45a7.77 7.77 0 0 0 6.4-7.65z"/>
        <path fill="#7ED320" fill-rule="nonzero" d="M385.92 154.23v-1.33h-.12v1.34c0 .376.304.68.68.68h.06a.68.68 0 0 1-.62-.69z" opacity=".5"/>
        <path fill="#ECEFF4" fill-rule="nonzero" d="M388.67 137.36a7.79 7.79 0 0 0-1.37.13 7.76 7.76 0 0 1 0 15.28 7.77 7.77 0 0 0 1.36.13v1.33a.685.685 0 0 0 1.37 0v-1.45a7.77 7.77 0 0 0-1.37-15.41l.01-.01z"/>
        <path fill="#FFF" fill-rule="nonzero" d="M397.13 118.56l-43.88-.23-.12 20.31v7.48a8.33 8.33 0 0 0 8.31 7.88 8.29 8.29 0 0 0 3.24-.66 5.24 5.24 0 0 0 1.41 2.8 5.24 5.24 0 0 1 1.49 3.66v6.65h2.62v-20.26l11 1.47a26.22 26.22 0 0 0 12.94-1.54l.88-.34.14.09v6.58a5.15 5.15 0 0 0 1.46 3.63 5.24 5.24 0 0 1 1.52 3.69v6.65h2.62l.48-24.15a25.53 25.53 0 0 1 .32-3.48c.047-.273.087-.557.12-.85l1.63-12.31a6.25 6.25 0 0 0-6.18-7.07z"/>
        <path fill="#FFF" fill-rule="nonzero" d="M356.29 146.08v-7.48l.1-20.29h-3.17l-.1 20.31v7.48c.19 4.39 3.13 7.88 6.74 7.88a5.52 5.52 0 0 0 1.59-.24c-2.86-.87-5-3.93-5.16-7.66z"/>
        <path fill="#515151" fill-rule="nonzero" d="M396.94 166.42h3.81v3.15h-6.65v-.31a2.84 2.84 0 0 1 2.84-2.84z"/>
        <rect width="16.91" height="11.83" x="366.88" y="121.19" fill="#515151" fill-rule="nonzero" rx="5.34"/>
        <rect width="11.48" height="8.8" x="379.85" y="134.09" fill="#515151" fill-rule="nonzero" rx="3.97"/>
        <path fill="#515151" fill-rule="nonzero" d="M374.48 136.51h2.19v2.19a1.8 1.8 0 0 1-1.8 1.8h-.39a1.8 1.8 0 0 1-1.8-1.8v-.39a1.8 1.8 0 0 1 1.8-1.8z"/>
        <path fill="#FFF" fill-rule="nonzero" d="M344.06 124.06h-3.77v-.41a3.79 3.79 0 0 1 3.79-3.79h3.77v.41a3.79 3.79 0 0 1-3.79 3.79z"/>
        <path fill="#515151" fill-rule="nonzero" d="M345.58 114.86a3 3 0 0 0 3 2.72h.63v2.27h-1.31a3 3 0 0 1-2.32-5v.01z"/>
        <path fill="#FFF" fill-rule="nonzero" d="M365.22 124.06h-3.77a3.79 3.79 0 0 1-3.79-3.79v-.41h3.77a3.79 3.79 0 0 1 3.79 3.79v.41z"/>
        <path fill="#B9D2DB" fill-rule="nonzero" d="M340.49 124.06h3.95a3.41 3.41 0 0 0 3.2-2.25h-3.94a3.41 3.41 0 0 0-3.21 2.25zM357.86 121.81a3.41 3.41 0 0 0 3.2 2.25H365a3.41 3.41 0 0 0-3.2-2.25h-3.94z"/>
        <path fill="#515151" fill-rule="nonzero" d="M360.28 114.86a3 3 0 0 1-3 2.72h-.63v2.27H358a3 3 0 0 0 2.32-5l-.04.01z"/>
        <path fill="#FFF" fill-rule="nonzero" d="M358 119.91v-.07a2.78 2.78 0 0 0-2.78-2.78h-5a2.78 2.78 0 0 0-2.78 2.78v.06a1.37 1.37 0 0 0-1 1.55l2.27 12a2.91 2.91 0 0 0 2.86 2.74h2a3.25 3.25 0 0 0 3.2-2.67l2.2-12a1.37 1.37 0 0 0-.97-1.61z"/>
        <path fill="#515151" fill-rule="nonzero" d="M358.54 124.06h-.17a4.16 4.16 0 0 0-4.1 3.45l-.86 5 3.4 1 1.73-9.45zM346.94 124.06h.17a4.16 4.16 0 0 1 4.1 3.45l.86 5-3.4 1-1.73-9.45z"/>
        <circle cx="352.66" cy="134.31" r="4.07" fill="#ECEFF4" fill-rule="nonzero"/>
        <path fill="#3CAB21" fill-rule="nonzero" d="M202.63 150.32h17.78l-4.12 17.62h-10.2z"/>
        <path fill="#64BE21" fill-rule="nonzero" d="M202.63 150.32l3.46 17.62h3.75l-3.46-17.62zM201.64 147.85h19.59v2.47h-19.59z"/>
        <path fill="#3CAB21" fill-rule="nonzero" d="M219.8 148.53a.68.68 0 0 1-.68-.68v-4.41a7.6 7.6 0 0 0-15.19 0v4.41a.68.68 0 1 1-1.36 0v-4.41a9 9 0 0 1 17.92 0v4.41a.68.68 0 0 1-.69.68zM171.02 118.53l.08.01 1.17-29.48h22.94l1.25 31.41 6.53 72.67h-13.34l-6.93-56.2-4.05 56.2h-11.62z"/>
        <path fill="#5EC421" fill-rule="nonzero" d="M182.8 119.18h-.92a4.25 4.25 0 0 1-4.25-4.25v-6.56h9.42v6.56a4.25 4.25 0 0 1-4.25 4.25z"/>
        <path fill="#E4EAEA" fill-rule="nonzero" d="M202.8 92.58l7.92 14.75a17.07 17.07 0 0 1 2 7.22l.89 17.82h-7l-2.54-20.14-13.37-23.18h6.2a6.69 6.69 0 0 1 5.9 3.53zM186.9 89.05v7.53a4.63 4.63 0 0 1-4.63 4.63h-.42a4.63 4.63 0 0 1-4.63-4.63v-7.53"/>
        <path fill="#E4EAEA" fill-rule="nonzero" d="M195.83 103.94h-1.14a4.3 4.3 0 0 1-4.3-4.3V89.06h5.44v14.88z"/>
        <path fill="url(#a)" fill-rule="nonzero" d="M207 132.3l.13 3a3.07 3.07 0 0 0 3 2.94 3.07 3.07 0 0 0 3.16-3.45l-.31-2.52-5.98.03z"/>
        <path fill="#515151" fill-rule="nonzero" d="M176.23 193.14v7.48h-14.41v-1.51a3.48 3.48 0 0 1 3.48-3.48h4.54v-2.48l6.39-.01zM199.91 193.14v7.48H185.5v-1.51a3.48 3.48 0 0 1 3.48-3.48h4.54v-2.48l6.39-.01z"/>
        <path fill="#3CAB21" fill-rule="nonzero" d="M187.32 78.83a8.7 8.7 0 0 0 3.47-9c-1.18-6.14-7.41-5.72-7.41-5.72s-2.73 14.16 3.94 14.72z"/>
        <path fill="url(#b)" fill-rule="nonzero" d="M181.57 79.31h.63a2.88 2.88 0 0 1 2.88 2.88v9.76h-6.4v-9.76a2.88 2.88 0 0 1 2.88-2.88h.01z" transform="rotate(180 181.88 85.63)"/>
        <path fill="#FFF" fill-rule="nonzero" d="M181 85.82l-1.47.7a5.06 5.06 0 0 1-5.95-1.2 5.06 5.06 0 0 1-1.29-3.38V72h12.79v7.37a7.16 7.16 0 0 1-4.08 6.45z"/>
        <path fill="#FFF" fill-rule="nonzero" d="M176.27 85.32a5.06 5.06 0 0 1-1.27-3.37V72h-2.71v10a5.06 5.06 0 0 0 6.44 4.87 5 5 0 0 1-2.46-1.55zM186.24 80.96h-1.19v-4.3h1.19a1.92 1.92 0 0 1 1.93 2v.42a1.92 1.92 0 0 1-1.93 1.88z"/>
        <path fill="#3CAB21" fill-rule="nonzero" d="M183.38 64.08a92.32 92.32 0 0 1-9.43-.59c-7.41-.67-10.89 12.63.08 10.43 7.31-1.46 7.83-1.94 7.83-1.94s-.25 5.87 3.2 5.84c.01.01 2.7-12.48-1.68-13.74z"/>
        <path fill="#3CAB21" fill-rule="nonzero" d="M176 63.66l-2-.18c-7.39-.67-10.88 12.58 0 10.44-5-1.42-2.91-8.92 2-10.26z" opacity=".5"/>
        <path fill="#FFF" fill-rule="nonzero" d="M183.76 78.26h2.13v2.13h-2.13z"/>
        <path fill="#E4EAEA" fill-rule="nonzero" d="M140.07 89.06h32.37v8.84h-32.37z"/>
        <path fill="#E4EAEA" fill-rule="nonzero" d="M174.36 89.05v12.2a2.36 2.36 0 0 1-2.36 2.36h-.31l.22-14.56h2.45z"/>
        <path fill="#515151" fill-rule="nonzero" d="M120.87 200.62h-14.28v-6.77h10.94a3.34 3.34 0 0 1 3.34 3.34v3.43z"/>
        <path fill="#B9D2DB" fill-rule="nonzero" d="M138.43 141.39v22.45a11.27 11.27 0 0 1-3.2 7.86 11.27 11.27 0 0 0-3.2 7.86v14.29h-5.63V141.1l12.03.29z"/>
        <path fill="#515151" fill-rule="nonzero" d="M140.69 200.62h-14.28v-6.77h10.94a3.34 3.34 0 0 1 3.34 3.34v3.43z"/>
        <path fill="#B9D2DB" fill-rule="nonzero" d="M72.5 141.39v22.45a11.27 11.27 0 0 1-3.2 7.86 11.27 11.27 0 0 0-3.2 7.86v14.29h-5.63V141.1l12.03.29z"/>
        <path fill="#515151" fill-rule="nonzero" d="M74.76 200.62H60.47v-6.77h10.95a3.34 3.34 0 0 1 3.34 3.34v3.43zM31.69 154.45a1.36 1.36 0 0 0 1.36-1.36v-50.42a7.55 7.55 0 0 1 7.54-7.54 1.365 1.365 0 1 0 0-2.73c-5.67.006-10.264 4.6-10.27 10.27v50.41a1.36 1.36 0 0 0 1.37 1.37z"/>
        <path fill="#ECEFF4" fill-rule="nonzero" d="M50.2 148.08c-.008-8.422 6.257-15.533 14.613-16.585 8.357-1.053 16.189 4.282 18.27 12.444C85.162 152.1 80.84 160.534 73 163.61v4a1.47 1.47 0 1 1-2.94 0v-3.17a16.77 16.77 0 0 1-3.2.31v2.86a1.47 1.47 0 1 1-2.94 0v-3.12a16.7 16.7 0 0 1-13.72-16.41z"/>
        <path fill="#7ED320" fill-rule="nonzero" d="M72.79 167.64v-2.86H73v2.87a1.47 1.47 0 0 1-1.47 1.47h-.12a1.47 1.47 0 0 0 1.38-1.48z" opacity=".5"/>
        <path fill="#ECEFF4" fill-rule="nonzero" d="M66.9 131.39c.99.006 1.977.1 2.95.28a16.69 16.69 0 0 0 0 32.85 16.71 16.71 0 0 1-2.92.27v2.86a1.47 1.47 0 1 1-2.94 0v-3.12c-8.54-1.495-14.514-9.28-13.747-17.915.766-8.636 8.017-15.248 16.687-15.215l-.03-.01z"/>
        <path fill="#FFF" fill-rule="nonzero" d="M48.71 91l94.31-.5.26 43.65v5.32l.06 10.69h-.09c-.51 9.498-8.359 16.938-17.87 16.94a17.83 17.83 0 0 1-7-1.41 11.26 11.26 0 0 1-3 6 11.27 11.27 0 0 0-3.2 7.86v14.29h-5.64v-43.47L83 153.53a56.36 56.36 0 0 1-27.81-3.3l-1.89-.73-.29.2v14.14a11.06 11.06 0 0 1-3.13 7.8 11.27 11.27 0 0 0-3.26 7.93v14.29h-5.69l-1-51.91a54.88 54.88 0 0 0-.68-7.48c-.093-.593-.18-1.2-.26-1.82l-3.5-26.47A13.44 13.44 0 0 1 48.71 91z"/>
        <path fill="#FFF" fill-rule="nonzero" d="M136.48 150.14h.07l-.05-10.69v-5.32l-.21-43.6h6.82l.21 43.65v5.32l.05 10.69h-.07c-.4 9.44-6.73 16.94-14.48 16.94a11.85 11.85 0 0 1-3.41-.52c6.12-1.87 10.73-8.47 11.07-16.47z"/>
        <path fill="#515151" fill-rule="nonzero" d="M55.21 200.62H40.93v-6.77h10.94a3.34 3.34 0 0 1 3.34 3.34v3.43z"/>
        <rect width="36.34" height="25.42" x="77.39" y="96.63" fill="#515151" fill-rule="nonzero" rx="6.27" transform="rotate(180 95.56 109.34)"/>
        <rect width="24.68" height="18.92" x="61.17" y="124.37" fill="#515151" fill-rule="nonzero" rx="4.67" transform="rotate(-180 73.51 133.83)"/>
        <path fill="#E4EAEA" fill-rule="nonzero" d="M123.17 89.86h6.39a2.23 2.23 0 0 1 2.23 2.23v.76a4.81 4.81 0 0 1-4.79 4.81h-1.22a4.81 4.81 0 0 1-4.81-4.81v-.76a2.23 2.23 0 0 1 2.23-2.23h-.03z"/>
        <path fill="#515151" fill-rule="nonzero" d="M99.15 138.16H94.8a2.12 2.12 0 0 1-2.12-2.12v-6.47h6.47a2.12 2.12 0 0 1 2.11 2.16v4.35a2.12 2.12 0 0 1-2.11 2.08z"/>
        <path fill="#FFF" fill-rule="nonzero" d="M154.62 93.76h11.8a4.46 4.46 0 0 1 4.46 4.46v4.58h-11.8a4.46 4.46 0 0 1-4.46-4.46v-4.58z"/>
        <path fill="#515151" fill-rule="nonzero" d="M159.5 83a6.53 6.53 0 0 1-6.5 5.88h-1.36v4.89h2.86a6.52 6.52 0 0 0 5-10.73V83z"/>
        <path fill="#FFF" fill-rule="nonzero" d="M121.75 93.76h11.8v4.58a4.46 4.46 0 0 1-4.46 4.46h-11.8v-4.58a4.46 4.46 0 0 1 4.46-4.46z"/>
        <path fill="#B9D2DB" fill-rule="nonzero" d="M170.43 102.8h-8.48a7.32 7.32 0 0 1-6.89-4.8h8.48a7.32 7.32 0 0 1 6.89 4.8zM133.1 98a7.32 7.32 0 0 1-6.88 4.83h-8.48a7.32 7.32 0 0 1 6.88-4.83h8.48z"/>
        <path fill="#515151" fill-rule="nonzero" d="M127.91 83a6.53 6.53 0 0 0 6.49 5.85h1.36v4.89h-2.86a6.52 6.52 0 0 1-5-10.73l.01-.01z"/>
        <path fill="#FFF" fill-rule="nonzero" d="M132.74 93.88v-.15a6 6 0 0 1 6-6h10.73a6 6 0 0 1 6 6v.13a3 3 0 0 1 2.2 3.33l-4.88 25.71c-.54 3.39-2.72 5.88-6.15 5.88h-4.35a7 7 0 0 1-6.88-5.73l-4.72-25.79a3 3 0 0 1 2.05-3.38z"/>
        <path fill="#515151" fill-rule="nonzero" d="M131.65 102.8h.35a8.94 8.94 0 0 1 8.8 7.41l1.85 10.71-7.29 2.08-3.71-20.2zM156.58 102.8h-.36a8.94 8.94 0 0 0-8.8 7.41l-1.85 10.71 7.31 2.12 3.7-20.24z"/>
        <circle cx="144.27" cy="124.85" r="8.74" fill="#ECEFF4" fill-rule="nonzero"/>
    </g>
</svg>
