<svg xmlns="http://www.w3.org/2000/svg" width="28" height="30" viewBox="0 0 28 30">
    <path fill="#D8D8D8" fill-rule="nonzero" d="M3.5 0C1.568 0 0 1.55 0 3.462V30h28V3.462C28 1.55 26.432 0 24.5 0h-21zm0 2.308h21c.643 0 1.167.518 1.167 1.154v24.23h-9.334v-5.769h-4.666v5.77H2.333V3.461c0-.636.524-1.154 1.167-1.154zm1.167 2.307v3.462h4.666V4.615H4.667zm7 0v3.462h4.666V4.615h-4.666zm7 0v3.462h4.666V4.615h-4.666zm-14 5.77v3.461h4.666v-3.461H4.667zm7 0v3.461h4.666v-3.461h-4.666zm7 0v3.461h4.666v-3.461h-4.666zm-14 5.769v3.461h4.666v-3.461H4.667zm7 0v3.461h4.666v-3.461h-4.666zm7 0v3.461h4.666v-3.461h-4.666zm-14 5.77v3.46h4.666v-3.46H4.667zm14 0v3.46h4.666v-3.46h-4.666z"/>
</svg>
