<svg xmlns="http://www.w3.org/2000/svg" width="12" height="11" viewBox="0 0 12 11">
    <path fill="#FFF" fill-rule="evenodd" d="M11.25 8.687c0 .282-.125.829-.242 1.086-.164.383-.602.633-.953.829-.461.25-.93.398-1.453.398-.727 0-1.383-.297-2.047-.54a7.302 7.302 0 0 1-1.367-.648c-1.329-.82-2.93-2.421-3.75-3.75a7.303 7.303 0 0 1-.649-1.367C.547 4.031.25 3.375.25 2.648c0-.523.148-.992.398-1.453.196-.351.446-.789.829-.953C1.734.125 2.28 0 2.562 0c.055 0 .11 0 .165.023.164.055.336.438.414.594.25.445.492.899.75 1.336.125.203.359.453.359.695 0 .477-1.414 1.172-1.414 1.594 0 .211.195.485.305.672C3.93 6.336 4.914 7.32 6.336 8.11c.187.11.46.305.672.305C7.43 8.414 8.125 7 8.602 7c.242 0 .492.234.695.36.437.257.89.5 1.336.75.156.077.539.25.594.413.023.055.023.11.023.164z"/>
</svg>
