<svg xmlns="http://www.w3.org/2000/svg" width="26" height="25" viewBox="0 0 26 25">
    <path fill="#4A4A4A" fill-rule="nonzero" d="M9.88 0C4.483 0 0 3.902 0 8.805c0 2.373 1.062 4.523 2.762 6.104-.25.738-.78 1.326-1.348 1.79-.317.259-.626.48-.878.7-.126.11-.241.208-.341.358-.1.15-.201.411-.13.667l.065.196.179.114c.54.307 1.196.342 1.885.293.688-.05 1.432-.206 2.161-.407a23.414 23.414 0 0 0 2.584-.895c1.45 3.369 5.064 5.615 9.181 5.615.699 0 1.404-.096 2.064-.195.71.315 3.812 1.643 5.963 1.643.618 0 1.097-.11 1.48-.325l.194-.114.049-.195c.152-.558-.319-.948-.926-1.433-.612-.486-1.42-1.133-1.771-2.034 1.77-1.636 2.778-3.858 2.778-6.152 0-3.748-2.73-7.133-6.662-8.334C18.048 2.59 14.278 0 9.88 0zm0 1.042c3.96 0 7.266 2.29 8.385 5.42.004.012.012.02.016.032.006.016.01.033.017.049.07.205.127.407.178.618.037.147.055.29.082.44l.016.114c.022.138.05.283.065.423.002.02-.002.045 0 .065.016.197.032.4.032.602 0 .267-.018.521-.048.782a7.12 7.12 0 0 1-.13.78 6.999 6.999 0 0 1-.52 1.45 7.425 7.425 0 0 1-1.333 1.92 8.13 8.13 0 0 1-.569.553 8.774 8.774 0 0 1-.617.505 9.408 9.408 0 0 1-3.851 1.611 9.923 9.923 0 0 1-1.772.163c-.351 0-.7-.018-1.04-.049-.016-.002-.032.002-.048 0-.045-.004-.088-.012-.13-.016a8.934 8.934 0 0 1-.797-.13l-.162-.05-.163.066c-.67.283-2.037.859-3.412 1.237-.689.19-1.384.332-1.966.374-.258.019-.366-.059-.57-.081.167-.13.307-.234.52-.407.693-.566 1.547-1.383 1.82-2.604l.066-.31-.228-.211C2.058 12.966 1.04 10.986 1.04 8.805c0-4.264 3.94-7.763 8.84-7.763z"/>
</svg>
