<svg xmlns="http://www.w3.org/2000/svg" width="36" height="35" viewBox="0 0 36 35">
    <path fill="#88C000" fill-rule="nonzero" d="M7.875 0a.716.716 0 0 1 .652.388c.92 1.723 1.831 2.463 2.836 2.848.922.353 2.008.393 3.307.387.028-.048.062-.088.09-.137.29-.507.554-1.048 1.058-1.48.503-.434 1.22-.684 2.115-.684.894 0 1.611.25 2.114.683.504.433.768.974 1.058 1.481.028.049.062.089.09.137 1.3.006 2.385-.034 3.308-.387 1.004-.385 1.915-1.125 2.834-2.848a.718.718 0 0 1 1.109-.186c.154.14.244.34.241.55 0 .282.034 1.857-.495 3.44-.39 1.174-1.178 2.416-2.497 3.123.217.173.42.37.607.57 1.089-.556 2.484-1.08 3.96-1.094 1.505-.015 2.782.145 3.736.432.475.143.866.32 1.192.547.326.228.675.561.675 1.094 0 .783-.394 1.652-1.17 2.507-.776.854-2.01 1.586-3.645 1.595-1.007.005-1.887-.237-2.7-.57.16.766.281 1.58.405 2.46a.493.493 0 0 1 0 .092c0 3.45-1.142 6.024-2.25 7.93-.554.951-1.08 1.743-1.462 2.392-.375.636-.577 1.114-.585 1.39-.003 0 0 .012 0 .023.025.029.047.06.067.091.053.123.135.345.248.707.19.623.36 1.58.36 3.167 0 1.265-.794 2.384-2.048 3.122-1.254.737-2.992 1.162-5.152 1.162s-3.899-.425-5.153-1.162c-1.254-.738-2.047-1.855-2.047-3.122 0-1.587.168-2.546.36-3.167a5.223 5.223 0 0 1 .315-.82c-.009-.277-.211-.755-.585-1.39-.383-.65-.909-1.442-1.463-2.393-1.108-1.903-2.25-4.48-2.25-7.93a.493.493 0 0 1 0-.091c.124-.88.245-1.695.405-2.461-.813.333-1.693.575-2.7.57-1.634-.009-2.869-.74-3.645-1.595C.394 10.516 0 9.647 0 8.864c0-.533.349-.866.675-1.094.326-.228.717-.404 1.192-.547.954-.287 2.23-.447 3.736-.432 1.476.014 2.871.538 3.96 1.093.188-.2.39-.396.607-.57-1.32-.706-2.107-1.948-2.497-3.121-.53-1.584-.495-3.159-.495-3.44a.729.729 0 0 1 .562-.73A.743.743 0 0 1 7.875 0zm10.058 2.78c-.659 0-.929.134-1.17.342-.242.208-.473.581-.766 1.094-.56.982-1.434 2.387-3.577 3.44a.693.693 0 0 1-.315.183c-1.215.57-1.93 1.333-2.453 2.483-.523 1.151-.83 2.71-1.102 4.626 0 3.128 1.004 5.383 2.047 7.178.52.897 1.038 1.675 1.463 2.392.14.24.267.473.383.707.045-.037.09-.083.135-.114.407-.3.748-.459.99-.684.241-.225.438-.521.63-1.207.18-.65.3-1.704.314-3.19-.194-.42-.663-.818-1.327-1.185-.697-.385-1.522-.641-2.048-1.39-.185-.262-.185-.41-.225-.616a6.396 6.396 0 0 1-.09-.706 13.571 13.571 0 0 1-.022-1.777c.034-.641.118-1.294.27-1.869.152-.575.338-1.128.9-1.481 1.612-1.014 3.9-1.74 5.805-1.777a.475.475 0 0 1 .09 0h.202c1.91.031 4.21.76 5.828 1.777.563.356.748.906.9 1.481.152.575.236 1.228.27 1.869.034.64.02 1.259-.023 1.777-.02.26-.05.501-.09.706-.039.205-.042.354-.225.616-.525.749-1.35 1.005-2.047 1.39-.664.367-1.133.766-1.328 1.184.015 1.487.136 2.541.316 3.19.19.687.388.983.63 1.208.241.225.582.385.99.684.044.031.09.077.134.114.116-.234.242-.467.383-.707.425-.717.942-1.495 1.462-2.392 1.044-1.795 2.048-4.05 2.048-7.178-.273-1.917-.58-3.475-1.103-4.626-.52-1.139-1.215-1.914-2.407-2.483a.715.715 0 0 1-.337-.16c-2.163-1.054-3.038-2.475-3.6-3.463-.293-.513-.524-.886-.765-1.094-.242-.208-.512-.342-1.17-.342zm-8.978.615c.59.561 1.23.955 1.89 1.208.911.348 1.848.43 2.813.456-.43.444-1.027.883-1.89 1.299-1.604-.31-2.332-1.405-2.745-2.644-.037-.114-.037-.205-.068-.319zm17.955 0c-.03.114-.03.205-.067.32-.414 1.238-1.142 2.332-2.745 2.643-.864-.416-1.46-.855-1.89-1.3.964-.025 1.9-.107 2.812-.455.66-.253 1.3-.647 1.89-1.208zM5.58 8.25c1.058.011 2.183.387 3.105.82a8.053 8.053 0 0 0-.338.638c-.123.27-.236.55-.337.843-1.04.536-2.04.963-3.195.957-1.22-.005-2.03-.527-2.588-1.139a3.14 3.14 0 0 1-.72-1.39c.138-.094.394-.23.766-.342.762-.228 1.92-.401 3.307-.387zm24.705 0c1.387-.014 2.545.16 3.308.387.37.111.627.248.764.342a3.14 3.14 0 0 1-.72 1.39c-.556.612-1.366 1.134-2.587 1.14-1.156.005-2.154-.422-3.195-.958a9.369 9.369 0 0 0-.338-.843 8.053 8.053 0 0 0-.337-.638c.922-.433 2.047-.809 3.105-.82zM13.477 31.764a.977.977 0 0 1 .45.137c.211.126.279.24.338.479.034.14.037.327.045.524a5.409 5.409 0 0 1-.81-.388 3.51 3.51 0 0 1-.787-.615c.185-.062.478-.154.764-.137zm8.91 0c.287-.017.58.075.765.137a3.51 3.51 0 0 1-.787.615c-.24.14-.503.271-.81.388.008-.197.011-.385.045-.524.06-.24.127-.353.337-.479a.977.977 0 0 1 .45-.137z"/>
</svg>
