<svg xmlns="http://www.w3.org/2000/svg" width="31" height="30" viewBox="0 0 31 30">
    <path fill="#D8D8D8" fill-rule="nonzero" d="M24.115.001a.597.597 0 0 0-.486.314c-1.123 2.09-2.314 2.619-3.85 2.741.347.477.821.92 1.73 1.332.688.31 1.245.687 1.731 1.116 1.007-1.05 1.563-2.707 1.556-4.876a.623.623 0 0 0-.68-.627zm-17.23.02a.705.705 0 0 0-.214.02c-.275.068-.467.34-.467.626-.007 2.142.53 3.792 1.536 4.837a6.882 6.882 0 0 1 1.75-1.116c.91-.412 1.384-.855 1.731-1.332-1.534-.122-2.727-.65-3.85-2.741A.566.566 0 0 0 6.885.02zM15.5 1.118c-1.687 0-2.21.925-2.723 1.82-.486.848-1.035 1.805-2.761 2.585C7.198 6.8 6.61 9.443 6.146 12.75c-.005.03 0 .049 0 .078 0 3.799 1.558 6.256 2.703 8.048.537.842 1.009 1.579 1.011 2.017-.012.051-.049.105-.078.176-.18.431-.505 1.239-.505 3.25C9.277 28.155 11.202 30 15.5 30s6.223-1.846 6.223-3.681c0-2.012-.325-2.82-.505-3.25-.03-.072-.068-.133-.078-.157 0-.465.474-1.195 1.011-2.037 1.145-1.792 2.703-4.249 2.703-8.048 0-.03.005-.049 0-.078-.464-3.307-1.052-5.95-3.87-7.226-1.726-.78-2.278-1.737-2.761-2.584-.513-.896-1.036-1.821-2.723-1.821zm-10.794 4.7C2.963 5.817 0 6.188 0 7.598c0 1.19 1.473 3.512 4.162 3.525h.02c.337 0 .663-.025.972-.079.333-1.85.838-3.517 1.906-4.817-.654-.222-1.425-.404-2.217-.41h-.137zm21.451 0c-.79.006-1.563.188-2.217.41 1.07 1.3 1.573 2.967 1.906 4.817.309.054.635.079.973.079h.02C29.526 11.11 31 8.789 31 7.599c0-1.41-2.963-1.782-4.706-1.782h-.137zM15.5 9.165c1.366 0 3.258.558 4.492 1.331.438.37.557 3.133.331 3.799-.155.18-.58.391-.953.587-.792.419-1.772.943-2.14 1.92a.7.7 0 0 0-.038.234c0 3.838.824 4.658 1.906 5.346.38.242.656.426.875.94.027.076.066.142.097.215.153.367.399 1.009.409 2.683-.448-.172-1.34-.39-2.16.098-.93.55-.952 1.53-.952 2.252-.554.1-1.167.176-1.867.176s-1.313-.076-1.867-.176c0-.68-.005-1.692-.953-2.252-.822-.485-1.711-.267-2.159-.098.01-1.674.256-2.296.409-2.663.029-.071.07-.162.097-.235.221-.522.493-.695.875-.94 1.082-.688 1.906-1.505 1.906-5.346a.7.7 0 0 0-.039-.235c-.367-.979-1.366-1.5-2.159-1.919-.372-.196-.778-.406-.933-.587-.226-.666-.12-3.412.311-3.78 1.242-.778 3.146-1.35 4.512-1.35zm-4.065 18.112a.966.966 0 0 1 .603.118c.25.149.333.408.35.861-.61-.232-1.089-.528-1.4-.861.114-.042.272-.1.447-.118zm7.916 0c.257-.017.503.04.66.098-.31.34-.777.644-1.4.881.018-.453.08-.712.331-.861a.922.922 0 0 1 .409-.118z"/>
</svg>
