<svg xmlns="http://www.w3.org/2000/svg" width="15" height="11" viewBox="0 0 15 11">
    <path fill="#FFF" fill-rule="evenodd" d="M14.25 3.547V9.75c0 .688-.562 1.25-1.25 1.25H1.5C.812 11 .25 10.438.25 9.75V3.547c.234.258.5.484.79.68 1.296.882 2.608 1.765 3.882 2.695C5.578 7.406 6.39 8 7.242 8h.016c.851 0 1.664-.594 2.32-1.078a149.636 149.636 0 0 1 3.89-2.695c.282-.196.548-.422.782-.68zm0-2.297c0 .875-.648 1.664-1.336 2.14-1.219.844-2.445 1.688-3.656 2.54C8.75 6.28 7.89 7 7.258 7h-.016c-.633 0-1.492-.719-2-1.07-1.21-.852-2.437-1.696-3.648-2.54C1.039 3.017.25 2.134.25 1.423.25.656.664 0 1.5 0H13c.68 0 1.25.562 1.25 1.25z"/>
</svg>
