<svg xmlns="http://www.w3.org/2000/svg" width="21" height="21" viewBox="0 0 21 21">
    <path fill="#D8D8D8" fill-rule="evenodd" d="M13.714 10.429A3.435 3.435 0 0 0 10.286 7a3.435 3.435 0 0 0-3.429 3.429 3.435 3.435 0 0 0 3.429 3.428 3.435 3.435 0 0 0 3.428-3.428zm1.849 0a5.27 5.27 0 0 1-5.277 5.276 5.27 5.27 0 0 1-5.277-5.276 5.27 5.27 0 0 1 5.277-5.277 5.27 5.27 0 0 1 5.277 5.277zm1.446-5.492c0 .684-.55 1.233-1.232 1.233-.683 0-1.232-.55-1.232-1.233s.549-1.232 1.232-1.232c.683 0 1.232.55 1.232 1.232zm-6.723-2.946c-1.5 0-4.715-.12-6.067.415a3.289 3.289 0 0 0-1.179.777c-.361.362-.59.71-.777 1.179-.535 1.352-.415 4.567-.415 6.067s-.12 4.714.415 6.067c.188.468.416.816.777 1.178.362.362.71.59 1.179.777 1.352.536 4.567.415 6.067.415s4.714.12 6.067-.415a3.289 3.289 0 0 0 1.178-.777c.362-.362.59-.71.777-1.178.536-1.353.415-4.567.415-6.067s.12-4.715-.415-6.067a3.289 3.289 0 0 0-.777-1.179 3.289 3.289 0 0 0-1.178-.777c-1.353-.535-4.567-.415-6.067-.415zM20.57 10.43c0 1.42.014 2.825-.067 4.245-.08 1.647-.455 3.107-1.66 4.313-1.206 1.205-2.665 1.58-4.313 1.66-1.42.08-2.826.067-4.245.067-1.42 0-2.826.014-4.246-.067-1.647-.08-3.107-.455-4.312-1.66C.522 17.78.148 16.32.067 14.674-.013 13.254 0 11.848 0 10.43c0-1.42-.013-2.826.067-4.246.08-1.647.455-3.107 1.66-4.312C2.934.665 4.394.29 6.04.21 7.46.13 8.866.143 10.286.143c1.42 0 2.826-.014 4.245.067 1.648.08 3.107.455 4.313 1.66 1.205 1.206 1.58 2.666 1.66 4.313.08 1.42.067 2.826.067 4.246z"/>
</svg>
