<?xml version="1.0" encoding="UTF-8"?>
<svg width="31px" height="35px" viewBox="0 0 31 35" version="1.1" xmlns="http://www.w3.org/2000/svg" xmlns:xlink="http://www.w3.org/1999/xlink">
    <!-- Generator: Sketch 49 (51002) - http://www.bohemiancoding.com/sketch -->
    <title>icons8-milk_filled</title>
    <desc>Created with Sketch.</desc>
    <defs></defs>
    <g id="Landing-Page" stroke="none" stroke-width="1" fill="none" fill-rule="evenodd">
        <g id="Home-Page-Copy-2" transform="translate(-138.000000, -1532.000000)" fill="#88C000" fill-rule="nonzero">
            <g id="Sapi-Welcome" transform="translate(0.000000, 1059.000000)">
                <g id="icons8-milk_filled" transform="translate(138.000000, 473.000000)">
                    <path d="M31,11.2458448 C31,8.78781564 30.0398997,5.95744681 26.6463917,5.95744681 L26.5714286,5.95744681 C25.8333333,5.95744681 25.1702013,6.10580138 24.5791479,6.25415596 C24.7261905,5.36112053 24.8732331,4.61643968 25.0952381,3.94739011 C25.2422807,3.57504968 25.0202757,3.20270926 24.7261905,3.05435543 C22.1428571,1.86170213 19.1155138,2.38239713 16.901228,2.75473755 C16.0160902,2.83036883 15.277995,2.9787234 14.7619048,2.9787234 C12.8417042,2.9787234 11.1463917,2.23404255 9.52027567,1.4893617 C7.8970426,0.744680851 6.27380952,0 4.42857143,0 C0.369047619,0 0,1.93733415 0,2.15841128 C0,2.38239713 0.0749631667,2.682015 0.29408519,2.83036883 C2.36132831,4.46808511 3.17438598,7.29845394 3.02734412,11.8392623 C2.95238095,13.6282412 2.73037593,15.3415895 2.5083709,16.8309512 C2.36132831,18.020695 2.21428571,19.1377163 2.21428571,19.9580284 C2.21428571,29.4148936 7.15894736,33.0626666 7.30598995,33.2139299 C8.48809524,34.2553191 9.30115364,34.3309512 9.5952381,34.2553191 L17.6393233,34.2553191 C17.7142857,34.2553191 17.7142857,34.2553191 17.7892489,34.2553191 C18.1582965,34.2553191 18.9684712,34.1069646 19.9285714,33.2139299 C20.4446616,32.8415895 24.2821804,29.787234 24.9481955,22.4160576 C28.3417042,20.0307517 31,14.2972907 31,11.2458448 Z M26.5714286,8.93617021 C27.4565664,8.93617021 28.047619,9.82920564 28.047619,11.1702128 C28.047619,13.1075469 26.7184712,16.6796879 24.9481955,18.6170213 C24.9481955,18.6170213 24.9481955,18.6170213 24.9481955,18.54139 C24.7261905,16.9036737 24.432106,14.1489362 24.3571429,11.3185673 C24.3571429,11.3185673 24.3571429,11.3185673 24.3571429,11.2458448 C24.3571429,10.5738865 24.3571429,9.90483691 24.3571429,9.23287936 C24.9481955,9.08452479 25.7583709,8.93617021 26.5714286,8.93617021 Z M19.0434336,32.0212766 C19.0434336,32.0212766 18.9684712,32.0969086 18.9684712,32.0969086 C18.3053384,32.7659574 17.8613283,32.7659574 17.8613283,32.8415895 C17.7892489,32.8415895 17.7892489,32.8415895 17.7892489,32.8415895 C17.7892489,32.8415895 17.7892489,32.8415895 17.7142857,32.8415895 L9.5952381,32.8415895 C9.5952381,32.8415895 9.15122805,32.8415895 8.26609021,32.0969086 C8.19401079,32.0969086 3.69047619,28.7458448 3.69047619,20.0307517 C3.69047619,19.3617021 3.83751879,18.2446809 3.98456138,17.0520283 C4.13448698,15.6382979 4.353609,14.2245682 4.42857143,12.6595745 L22.8809524,12.6595745 C22.9559155,15.1176029 23.25,17.3516454 23.472005,18.7653759 C23.5440852,19.3617021 23.6190476,19.9580284 23.6190476,20.106383 C23.6190476,28.7458448 19.1155138,31.9456453 19.0434336,32.0212766 Z" id="Shape"></path>
                </g>
            </g>
        </g>
    </g>
</svg>