<svg xmlns="http://www.w3.org/2000/svg" width="16" height="35" viewBox="0 0 16 35">
    <path fill="#7ED321" fill-rule="nonzero" d="M3.636 0h8.728c.795 0 1.454.647 1.454 1.429V3.57c0 .698-.525 1.29-1.204 1.407.068.111.136.215.204.335.512.904 1.012 2.103 1.477 3.37C15.23 11.217 16 13.97 16 15.58V31.43C16 33.393 14.364 35 12.364 35H3.636C1.636 35 0 33.393 0 31.429V15.58c0-1.604.759-4.363 1.682-6.897.463-1.267.966-2.444 1.477-3.348.074-.131.156-.237.227-.357-.679-.118-1.204-.709-1.204-1.407V1.43C2.182.647 2.84 0 3.636 0zm0 1.429V3.57h8.728V1.43H3.636z"/>
</svg>
