<svg xmlns="http://www.w3.org/2000/svg" width="20" height="20" viewBox="0 0 20 20">
    <path fill="#01AB50" fill-rule="nonzero" d="M16.5 0c-.688 0-1.398.195-2 .594-.898.601-1.492 1.601-1.594 2.5a3.902 3.902 0 0 1-1.094 2.219l-.312.28c.398.5.914 1 1.313 1.5.5.5 1 .915 1.5 1.313l.28-.312c.602-.602 1.321-.992 2.22-1.094.8-.102 1.492-.398 2.093-1 1.5-1.5 1.301-4.105-.5-5.406A3.235 3.235 0 0 0 16.5 0zM8.187 2L6 2.594c0 .101.414 1.3 1.313 3 .8 1.5.582 3.394-.72 4.593-.6.602-.6 1.5 0 2l1.095 1.126c.601.601 1.5.601 2 0 1.199-1.2 3.124-1.52 4.624-.72 1.801 1 2.993 1.407 3.094 1.407L18 11.812s-3.293-.917-6.094-3.718C9.106 5.293 8.187 2 8.187 2zm-2.25 5c-1.484.113-2.953.734-4.03 1.906-.016.02-.048.012-.063.031l.031.032c-2.441 2.496-2.45 6.558 0 9.125h.031c2.492 2.492 6.606 2.496 9.188.031v-.031c1.164-1.164 1.789-2.578 1.906-4l-2-.188c-.082.98-.477 1.946-1.313 2.781-1.816 1.715-4.675 1.7-6.374 0-1.715-1.816-1.7-4.675 0-6.375v-.03h.03C4.06 9.487 4.97 9.085 6.064 9l-.125-2z"/>
</svg>
