<?xml version="1.0" encoding="UTF-8"?>
<svg width="30px" height="30px" viewBox="0 0 30 30" version="1.1" xmlns="http://www.w3.org/2000/svg" xmlns:xlink="http://www.w3.org/1999/xlink">
    <!-- Generator: Sketch 49 (51002) - http://www.bohemiancoding.com/sketch -->
    <title>icons8-price_tag_usd</title>
    <desc>Created with Sketch.</desc>
    <defs></defs>
    <g id="Investasi" stroke="none" stroke-width="1" fill="none" fill-rule="evenodd">
        <g id="Main-Investasi-Page-Copy" transform="translate(-720.000000, -840.000000)">
            <g id="icons8-price_tag_usd" transform="translate(720.000000, 840.000000)">
                <path d="M15.7894737,0 L0.947368421,14.8421053 C-0.315789474,16.1052632 -0.315789474,18.0789474 0.947368421,19.3421053 L10.6578947,29.0526316 C11.9210526,30.3157895 13.8947368,30.3157895 15.1578947,29.0526316 L30,14.2105263 L30,3.15789474 C30,1.42105263 28.5789474,0 26.8421053,0 L15.7894737,0 Z M25.2631579,6.31578947 C24.3947368,6.31578947 23.6842105,5.60526316 23.6842105,4.73684211 C23.6842105,3.86842105 24.3947368,3.15789474 25.2631579,3.15789474 C26.1315789,3.15789474 26.8421053,3.86842105 26.8421053,4.73684211 C26.8421053,5.60526316 26.1315789,6.31578947 25.2631579,6.31578947 Z" id="Shape" fill="#88C000" fill-rule="nonzero"></path>
                <path d="M10.9287655,12.9856704 L11.5509479,12.9856704 C12.1606897,12.9856704 12.6107304,12.8853644 12.9010837,12.6847492 C13.1914369,12.4841341 13.3366114,12.1688865 13.3366114,11.7389969 C13.3366114,11.3132016 13.188326,11.0102363 12.8917509,10.8300921 C12.5951758,10.6499479 12.1358024,10.5598772 11.5136169,10.5598772 L10.9287655,10.5598772 L10.9287655,12.9856704 Z M10.9287655,14.5332651 L10.9287655,17.9785056 L9,17.9785056 L9,9 L11.650497,9 C12.8865723,9 13.8011713,9.22210627 14.3943214,9.66632549 C14.9874716,10.1105447 15.2840423,10.7850518 15.2840423,11.6898669 C15.2840423,12.218017 15.1367939,12.6878178 14.8422928,13.0992835 C14.5477916,13.5107492 14.1309336,13.8331616 13.5917061,14.0665302 C14.9605143,16.084964 15.8523001,17.3889428 16.2670905,17.9785056 L14.126783,17.9785056 L11.9553664,14.5332651 L10.9287655,14.5332651 Z M20.3246157,18.1013306 C19.5074787,18.1013306 18.8666372,17.8086007 18.402072,17.223132 L18.3025228,17.223132 C18.3688893,17.7963181 18.402072,18.1279422 18.402072,18.2180143 L18.402072,21 L16.5044157,21 L16.5044157,11.1125896 L18.0474281,11.1125896 L18.3149665,12.0030706 L18.402072,12.0030706 C18.8458977,11.3234357 19.5033305,10.9836233 20.3743903,10.9836233 C21.1956751,10.9836233 21.8385905,11.2968239 22.3031557,11.9232344 C22.7677209,12.5496449 23,13.4196464 23,14.5332651 C23,15.2661244 22.8911192,15.9027609 22.6733542,16.4431934 C22.4555893,16.983626 22.1455382,17.3950856 21.7431915,17.6775844 C21.3408449,17.9600833 20.867991,18.1013306 20.3246157,18.1013306 Z M19.7646515,12.482088 C19.2959384,12.482088 18.9537415,12.6243589 18.7380505,12.9089048 C18.5223596,13.1934508 18.4103678,13.6632516 18.402072,14.3183214 L18.402072,14.5209826 C18.402072,15.2579361 18.5130268,15.7860782 18.7349396,16.1054248 C18.9568525,16.4247713 19.308382,16.5844422 19.7895388,16.5844422 C20.639859,16.5844422 21.0650127,15.8925351 21.0650127,14.5087001 C21.0650127,13.8331594 20.9602797,13.3265114 20.7508106,12.988741 C20.5413415,12.6509707 20.2126251,12.482088 19.7646515,12.482088 Z" id="Rp" fill="#FAFAFA" transform="translate(16.000000, 15.000000) rotate(-44.000000) translate(-16.000000, -15.000000) "></path>
            </g>
        </g>
    </g>
</svg>