<svg xmlns="http://www.w3.org/2000/svg" width="35" height="21" viewBox="0 0 35 21">
    <path fill="#88C000" fill-rule="nonzero" d="M24.947 0c-3.055 0-5.818 1.049-7.68 2.625-.296.375-2.97 2.625-5.724 2.625-2.086 0-3.203-.75-4.469-.75C3.203 4.5 0 6.826 0 9.75V15c0 2.924 2.979 4.576 7.074 5.25.076 0 5.586.75 8.937.75 3.35 0 8.86-.75 8.936-.75C30.68 19.274 35 16.875 35 12.75V7.5C35 3.375 30.532 0 24.947 0zm8.564 11.25v1.5c0 3.9-5.521 5.476-8.797 6-.596.076-5.725.75-8.703.75-3.276 0-8.628-.75-8.704-.75C5.15 18.375 1.49 17.4 1.49 15v-2.18c.027.02.044.05.07.07.11.091.224.17.35.258.08.059.168.109.255.165.079.052.149.114.233.164.032.017.061.029.093.046 1.05.613 2.52 1.149 4.584 1.477.015 0 .844.1 1.164.14h.023a.73.73 0 0 0 .42.047h.022c1.161.141 2.543.305 4.515.446h.047c.477.032.94.073 1.396.094h.046c.454.02.9.023 1.304.023.384 0 .805-.006 1.233-.023.038-.003.079.002.116 0 3.302-.144 7.523-.727 7.587-.727.023-.003.046.003.07 0 .7-.12 1.367-.26 2.001-.422.262-.064.515-.138.768-.21.073-.021.137-.05.21-.071.351-.106.692-.208 1.023-.328.277-.1.533-.197.792-.305l.325-.14c.026-.012.044-.036.07-.047a12.328 12.328 0 0 0 1.839-1.008c.023-.018.046-.03.07-.047a9.28 9.28 0 0 0 .72-.54c.175-.146.335-.292.49-.444l.07-.07.116-.118z"/>
</svg>
