<svg xmlns="http://www.w3.org/2000/svg" width="26" height="25" viewBox="0 0 26 25">
    <path fill="#01AB50" fill-rule="nonzero" d="M4 0c-.79 0-1.457.46-1.781 1.125C.953 1.477 0 2.629 0 4v9.375l.25.281s2.355 2.758 5.75 3.25V19c0 3.3 2.7 6 6 6s6-2.7 6-6v-5c0-1.117.883-2 2-2s2 .883 2 2v.188c-1.156.417-2 1.519-2 2.812 0 1.645 1.355 3 3 3s3-1.355 3-3c0-1.293-.844-2.395-2-2.813V14c0-2.2-1.8-4-4-4s-4 1.8-4 4v5c0 2.219-1.781 4-4 4-2.219 0-4-1.781-4-4v-2.094c3.395-.492 5.75-3.25 5.75-3.25l.25-.281V4c0-1.371-.953-2.523-2.219-2.875A1.979 1.979 0 0 0 10 0a1.999 1.999 0 1 0 0 4c.656 0 1.23-.32 1.594-.813.25.18.406.473.406.813v8.563C11.64 12.925 9.512 15 7 15s-4.64-2.074-5-2.438V4c0-.34.156-.633.406-.813C2.77 3.68 3.344 4 4 4a1.999 1.999 0 1 0 0-4zm19 16c.563 0 1 .438 1 1 0 .563-.438 1-1 1-.563 0-1-.438-1-1 0-.563.438-1 1-1z"/>
</svg>
