<svg xmlns="http://www.w3.org/2000/svg" width="22" height="18" viewBox="0 0 22 18">
    <path fill="#D8D8D8" fill-rule="evenodd" d="M21.696 2.893a9.3 9.3 0 0 1-2.17 2.236c.014.188.014.375.014.563C19.54 11.411 15.188 18 7.232 18c-2.45 0-4.728-.71-6.643-1.942.349.04.683.054 1.045.054a8.663 8.663 0 0 0 5.37-1.849 4.333 4.333 0 0 1-4.044-3c.268.04.536.067.817.067.388 0 .777-.053 1.138-.147a4.326 4.326 0 0 1-3.469-4.246v-.053a4.357 4.357 0 0 0 1.956.549A4.323 4.323 0 0 1 1.473 3.83c0-.803.215-1.54.59-2.183a12.296 12.296 0 0 0 8.92 4.527 4.883 4.883 0 0 1-.108-.991A4.324 4.324 0 0 1 15.201.857c1.245 0 2.37.522 3.16 1.366a8.516 8.516 0 0 0 2.746-1.044 4.314 4.314 0 0 1-1.902 2.383 8.673 8.673 0 0 0 2.491-.67z"/>
</svg>
